<?xml version="1.0" encoding="UTF-8" standalone="no"?>
<!DOCTYPE svg PUBLIC "-//W3C//DTD SVG 1.1//EN" "http://www.w3.org/Graphics/SVG/1.1/DTD/svg11.dtd">
<svg xmlns="http://www.w3.org/2000/svg" version="1.1" viewBox="0 0 957 990">
<g stroke-width="2.00" fill="none" stroke-linecap="butt">
<path stroke="#d00030" vector-effect="non-scaling-stroke" d="
  M 467.75 977.79
  Q 468.93 977.04 468.37 976.09
  A 1.88 0.84 47.0 0 1 468.06 975.18
  Q 467.95 845.47 468.00 715.75
  Q 468.03 637.18 468.25 610.29"
/>
<path stroke="#e18097" vector-effect="non-scaling-stroke" d="
  M 468.25 610.29
  L 585.09 610.25
  A 1.43 1.43 -10.9 0 1 586.42 611.15
  L 642.13 749.98
  A 0.75 0.72 -10.3 0 0 642.82 750.44
  L 745.91 750.44
  A 0.33 0.32 -12.2 0 0 746.21 749.98
  L 468.21 124.50"
/>
<path stroke="#d00030" vector-effect="non-scaling-stroke" d="
  M 468.21 124.50
  Q 467.84 75.75 467.80 27.00
  Q 467.79 23.09 468.55 19.26
  Q 468.79 18.07 467.75 18.21"
/>
<path stroke="#ee8098" vector-effect="non-scaling-stroke" d="
  M 468.21 124.50
  L 468.00 124.50
  A 0.40 0.22 -72.1 0 0 467.73 124.75
  L 188.99 749.80
  A 0.50 0.49 12.1 0 0 189.45 750.50
  L 292.20 750.50
  A 0.96 0.95 -79.2 0 0 293.09 749.89
  L 348.64 611.07
  A 1.41 1.40 -77.1 0 1 350.04 610.19
  Q 355.28 610.60 360.18 610.47
  Q 368.76 610.25 368.83 610.25
  Q 418.54 610.22 468.25 610.29"
/>
<path stroke="#e18097" vector-effect="non-scaling-stroke" d="
  M 468.26 523.97
  L 548.85 524.00
  A 0.53 0.53 78.6 0 0 549.34 523.26
  L 468.96 330.25"
/>
<path stroke="#ee8098" vector-effect="non-scaling-stroke" d="
  M 468.96 330.25
  L 468.41 328.51
  Q 468.09 327.48 467.66 328.50
  L 386.68 523.18
  A 0.55 0.55 11.3 0 0 387.19 523.94
  L 468.26 523.97"
/>
<path stroke="#d00030" vector-effect="non-scaling-stroke" d="
  M 468.96 330.25
  Q 468.36 330.35 468.33 331.00
  Q 467.91 338.12 467.90 345.25
  Q 467.81 434.59 468.26 523.97"
/>
</g>
<path fill="#c3002f" d="
  M 467.75 977.79
  Q 468.93 977.04 468.37 976.09
  A 1.88 0.84 47.0 0 1 468.06 975.18
  Q 467.95 845.47 468.00 715.75
  Q 468.03 637.18 468.25 610.29
  L 585.09 610.25
  A 1.43 1.43 -10.9 0 1 586.42 611.15
  L 642.13 749.98
  A 0.75 0.72 -10.3 0 0 642.82 750.44
  L 745.91 750.44
  A 0.33 0.32 -12.2 0 0 746.21 749.98
  L 468.21 124.50
  Q 467.84 75.75 467.80 27.00
  Q 467.79 23.09 468.55 19.26
  Q 468.79 18.07 467.75 18.21
  Q 468.65 18.07 471.25 19.00
  Q 692.51 97.84 914.02 176.85
  A 1.37 1.36 -77.1 0 1 914.92 178.29
  L 846.91 767.80
  A 1.14 1.13 79.1 0 1 846.33 768.66
  Q 657.75 873.12 469.41 977.37
  Q 469.37 977.39 468.80 977.85
  Q 468.34 978.23 467.75 977.79
  Z"
/>
<path fill="#dd0031" d="
  M 467.75 18.21
  Q 468.79 18.07 468.55 19.26
  Q 467.79 23.09 467.80 27.00
  Q 467.84 75.75 468.21 124.50
  L 468.00 124.50
  A 0.40 0.22 -72.1 0 0 467.73 124.75
  L 188.99 749.80
  A 0.50 0.49 12.1 0 0 189.45 750.50
  L 292.20 750.50
  A 0.96 0.95 -79.2 0 0 293.09 749.89
  L 348.64 611.07
  A 1.41 1.40 -77.1 0 1 350.04 610.19
  Q 355.28 610.60 360.18 610.47
  Q 368.76 610.25 368.83 610.25
  Q 418.54 610.22 468.25 610.29
  Q 468.03 637.18 468.00 715.75
  Q 467.95 845.47 468.06 975.18
  A 1.88 0.84 47.0 0 0 468.37 976.09
  Q 468.93 977.04 467.75 977.79
  L 90.14 768.73
  A 1.97 1.97 11.1 0 1 89.14 767.24
  L 21.20 178.04
  A 0.80 0.80 -13.7 0 1 21.72 177.19
  L 467.75 18.21
  Z"
/>
<path fill="#ffffff" d="
  M 468.21 124.50
  L 746.21 749.98
  A 0.33 0.32 -12.2 0 1 745.91 750.44
  L 642.82 750.44
  A 0.75 0.72 -10.3 0 1 642.13 749.98
  L 586.42 611.15
  A 1.43 1.43 -10.9 0 0 585.09 610.25
  L 468.25 610.29
  Q 418.54 610.22 368.83 610.25
  Q 368.76 610.25 360.18 610.47
  Q 355.28 610.60 350.04 610.19
  A 1.41 1.40 -77.1 0 0 348.64 611.07
  L 293.09 749.89
  A 0.96 0.95 -79.2 0 1 292.20 750.50
  L 189.45 750.50
  A 0.50 0.49 12.1 0 1 188.99 749.80
  L 467.73 124.75
  A 0.40 0.22 -72.1 0 1 468.00 124.50
  L 468.21 124.50
  Z
  M 468.26 523.97
  L 548.85 524.00
  A 0.53 0.53 78.6 0 0 549.34 523.26
  L 468.96 330.25
  L 468.41 328.51
  Q 468.09 327.48 467.66 328.50
  L 386.68 523.18
  A 0.55 0.55 11.3 0 0 387.19 523.94
  L 468.26 523.97
  Z"
/>
<path fill="#dd0031" d="
  M 468.96 330.25
  Q 468.36 330.35 468.33 331.00
  Q 467.91 338.12 467.90 345.25
  Q 467.81 434.59 468.26 523.97
  L 387.19 523.94
  A 0.55 0.55 11.3 0 1 386.68 523.18
  L 467.66 328.50
  Q 468.09 327.48 468.41 328.51
  L 468.96 330.25
  Z"
/>
<path fill="#c3002f" d="
  M 468.96 330.25
  L 549.34 523.26
  A 0.53 0.53 78.6 0 1 548.85 524.00
  L 468.26 523.97
  Q 467.81 434.59 467.90 345.25
  Q 467.91 338.12 468.33 331.00
  Q 468.36 330.35 468.96 330.25
  Z"
/>
</svg>
