<?xml version="1.0" encoding="UTF-8" standalone="no"?>
<!DOCTYPE svg PUBLIC "-//W3C//DTD SVG 1.1//EN" "http://www.w3.org/Graphics/SVG/1.1/DTD/svg11.dtd">
<svg xmlns="http://www.w3.org/2000/svg" version="1.1" viewBox="0 0 128 128">
<g stroke-width="2.00" fill="none" stroke-linecap="butt">
<path stroke="#ab9ebe" vector-effect="non-scaling-stroke" d="
  M 87.90 60.24
  Q 99.77 53.66 96.59 39.29
  Q 94.47 29.69 85.00 26.99
  Q 79.45 25.41 72.75 25.50
  Q 59.02 25.69 36.82 25.32
  A 0.50 0.48 0.6 0 0 36.31 25.80
  L 36.19 102.06
  A 0.51 0.51 0.6 0 0 36.69 102.57
  Q 50.90 102.83 65.12 102.79
  Q 77.26 102.75 78.38 102.63
  Q 85.51 101.90 91.19 98.44
  Q 102.65 91.44 100.76 77.00
  Q 99.33 66.10 87.93 60.87
  Q 87.29 60.58 87.90 60.24"
/>
<path stroke="#ab9ebe" vector-effect="non-scaling-stroke" d="
  M 78.33 41.17
  Q 75.91 39.16 72.74 38.92
  Q 63.34 38.20 53.93 38.66
  A 0.54 0.52 -1.8 0 0 53.42 39.18
  L 53.30 56.20
  A 0.52 0.50 0.6 0 0 53.81 56.70
  Q 61.52 56.91 69.23 56.67
  Q 75.03 56.49 77.42 54.84
  Q 81.43 52.10 80.85 45.99
  Q 80.57 43.02 78.33 41.17"
/>
<path stroke="#ab9ebe" vector-effect="non-scaling-stroke" d="
  M 80.81 71.19
  Q 77.71 68.62 75.00 68.50
  Q 65.13 68.08 54.23 68.27
  A 0.99 0.99 -0.3 0 0 53.25 69.26
  L 53.25 88.95
  A 0.53 0.53 1.1 0 0 53.76 89.48
  Q 64.13 89.79 73.75 89.49
  Q 81.78 89.24 83.59 81.71
  Q 85.24 74.86 80.81 71.19"
/>
</g>
<path fill="#573d7c" d="
  M 15.06 0.00
  L 113.31 0.00
  Q 125.19 2.10 128.00 13.81
  L 128.00 114.56
  Q 125.30 125.38 114.44 128.00
  L 13.69 128.00
  Q 2.02 125.09 0.00 113.19
  L 0.00 14.94
  Q 2.29 2.19 15.06 0.00
  Z
  M 87.90 60.24
  Q 99.77 53.66 96.59 39.29
  Q 94.47 29.69 85.00 26.99
  Q 79.45 25.41 72.75 25.50
  Q 59.02 25.69 36.82 25.32
  A 0.50 0.48 0.6 0 0 36.31 25.80
  L 36.19 102.06
  A 0.51 0.51 0.6 0 0 36.69 102.57
  Q 50.90 102.83 65.12 102.79
  Q 77.26 102.75 78.38 102.63
  Q 85.51 101.90 91.19 98.44
  Q 102.65 91.44 100.76 77.00
  Q 99.33 66.10 87.93 60.87
  Q 87.29 60.58 87.90 60.24
  Z"
/>
<path fill="#ffffff" d="
  M 87.90 60.24
  Q 87.29 60.58 87.93 60.87
  Q 99.33 66.10 100.76 77.00
  Q 102.65 91.44 91.19 98.44
  Q 85.51 101.90 78.38 102.63
  Q 77.26 102.75 65.12 102.79
  Q 50.90 102.83 36.69 102.57
  A 0.51 0.51 0.6 0 1 36.19 102.06
  L 36.31 25.80
  A 0.50 0.48 0.6 0 1 36.82 25.32
  Q 59.02 25.69 72.75 25.50
  Q 79.45 25.41 85.00 26.99
  Q 94.47 29.69 96.59 39.29
  Q 99.77 53.66 87.90 60.24
  Z
  M 78.33 41.17
  Q 75.91 39.16 72.74 38.92
  Q 63.34 38.20 53.93 38.66
  A 0.54 0.52 -1.8 0 0 53.42 39.18
  L 53.30 56.20
  A 0.52 0.50 0.6 0 0 53.81 56.70
  Q 61.52 56.91 69.23 56.67
  Q 75.03 56.49 77.42 54.84
  Q 81.43 52.10 80.85 45.99
  Q 80.57 43.02 78.33 41.17
  Z
  M 80.81 71.19
  Q 77.71 68.62 75.00 68.50
  Q 65.13 68.08 54.23 68.27
  A 0.99 0.99 -0.3 0 0 53.25 69.26
  L 53.25 88.95
  A 0.53 0.53 1.1 0 0 53.76 89.48
  Q 64.13 89.79 73.75 89.49
  Q 81.78 89.24 83.59 81.71
  Q 85.24 74.86 80.81 71.19
  Z"
/>
<path fill="#573d7c" d="
  M 78.33 41.17
  Q 80.57 43.02 80.85 45.99
  Q 81.43 52.10 77.42 54.84
  Q 75.03 56.49 69.23 56.67
  Q 61.52 56.91 53.81 56.70
  A 0.52 0.50 0.6 0 1 53.30 56.20
  L 53.42 39.18
  A 0.54 0.52 -1.8 0 1 53.93 38.66
  Q 63.34 38.20 72.74 38.92
  Q 75.91 39.16 78.33 41.17
  Z"
/>
<path fill="#573d7c" d="
  M 80.81 71.19
  Q 85.24 74.86 83.59 81.71
  Q 81.78 89.24 73.75 89.49
  Q 64.13 89.79 53.76 89.48
  A 0.53 0.53 1.1 0 1 53.25 88.95
  L 53.25 69.26
  A 0.99 0.99 -0.3 0 1 54.23 68.27
  Q 65.13 68.08 75.00 68.50
  Q 77.71 68.62 80.81 71.19
  Z"
/>
</svg>
