<?xml version="1.0" encoding="UTF-8" standalone="no"?>
<!DOCTYPE svg PUBLIC "-//W3C//DTD SVG 1.1//EN" "http://www.w3.org/Graphics/SVG/1.1/DTD/svg11.dtd">
<svg xmlns="http://www.w3.org/2000/svg" version="1.1" viewBox="0 0 451 512">
<g stroke-width="2.00" fill="none" stroke-linecap="butt">
<path stroke="#80afd1" vector-effect="non-scaling-stroke" d="
  M 225.25 90.46
  L 84.93 90.50
  A 0.47 0.46 -2.8 0 0 84.46 91.01
  L 89.39 146.06
  A 0.55 0.54 -2.2 0 0 89.94 146.56
  L 225.75 146.71"
/>
<path stroke="#8ab9db" vector-effect="non-scaling-stroke" d="
  M 225.75 146.71
  L 226.00 146.79"
/>
<path stroke="#248ec9" vector-effect="non-scaling-stroke" d="
  M 226.00 146.79
  Q 225.51 147.70 225.50 149.75
  Q 225.37 177.13 225.67 204.50"
/>
<path stroke="#8ab9db" vector-effect="non-scaling-stroke" d="
  M 225.67 204.50
  Q 225.73 204.84 225.29 204.75"
/>
<path stroke="#80afd1" vector-effect="non-scaling-stroke" d="
  M 225.29 204.75
  Q 214.39 204.32 203.50 204.48
  Q 191.18 204.66 183.51 204.55
  Q 171.73 204.38 159.41 204.51
  A 0.89 0.88 87.3 0 0 158.54 205.47
  L 163.36 260.47
  A 0.86 0.85 87.4 0 0 164.21 261.25
  L 225.17 261.23"
/>
<path stroke="#8ab9db" vector-effect="non-scaling-stroke" d="
  M 225.17 261.23
  L 225.75 261.29"
/>
<path stroke="#248ec9" vector-effect="non-scaling-stroke" d="
  M 225.75 261.29
  Q 225.31 304.02 225.50 346.75
  Q 225.51 349.68 226.04 351.00"
/>
<path stroke="#8ab9db" vector-effect="non-scaling-stroke" d="
  M 226.04 351.00
  Q 225.98 351.23 225.75 351.29"
/>
<path stroke="#80afd1" vector-effect="non-scaling-stroke" d="
  M 225.75 351.29
  L 163.43 334.45
  A 0.76 0.72 5.5 0 1 162.88 333.82
  L 158.99 290.42
  A 1.27 1.23 87.2 0 0 157.75 289.26
  L 102.69 289.43
  A 0.47 0.46 87.7 0 0 102.23 289.94
  L 109.89 377.04
  A 1.37 1.35 5.7 0 0 110.88 378.23
  L 226.38 410.28"
/>
<path stroke="#248ec9" vector-effect="non-scaling-stroke" d="
  M 226.38 410.28
  Q 225.50 410.89 225.50 413.00
  Q 225.50 442.00 225.50 471.70
  A 0.58 0.58 82.4 0 0 226.23 472.26
  L 373.81 431.41
  A 1.25 1.25 84.9 0 0 374.72 430.32
  L 409.59 38.96
  A 0.88 0.87 -87.3 0 0 408.72 38.00
  L 226.29 38.00
  A 0.81 0.80 90.0 0 0 225.49 38.81
  L 225.25 90.46"
/>
<path stroke="#8fcae4" vector-effect="non-scaling-stroke" d="
  M 226.38 410.28
  L 226.48 409.83"
/>
<path stroke="#99d4ee" vector-effect="non-scaling-stroke" d="
  M 226.48 409.83
  L 340.38 378.27
  A 1.36 1.36 -5.6 0 0 341.38 377.07
  L 366.89 91.07
  A 0.46 0.45 -87.1 0 0 366.44 90.56
  L 225.50 90.54"
/>
<path stroke="#8fcae4" vector-effect="non-scaling-stroke" d="
  M 225.50 90.54
  L 225.25 90.46"
/>
<path stroke="#f5f5f5" vector-effect="non-scaling-stroke" d="
  M 225.50 90.54
  L 225.75 146.71"
/>
<path stroke="#f5f5f5" vector-effect="non-scaling-stroke" d="
  M 226.48 409.83
  Q 226.20 407.02 226.26 404.31
  Q 226.81 378.53 226.04 352.76
  Q 226.01 352.02 225.75 351.29"
/>
<path stroke="#99d4ee" vector-effect="non-scaling-stroke" d="
  M 226.04 351.00
  L 288.13 334.45
  A 0.50 0.50 -5.0 0 0 288.50 334.01
  L 295.09 261.79
  A 0.49 0.49 -87.3 0 0 294.60 261.25
  L 225.75 261.29"
/>
<path stroke="#f5f5f5" vector-effect="non-scaling-stroke" d="
  M 225.17 261.23
  Q 225.90 232.97 225.29 204.75"
/>
<path stroke="#99d4ee" vector-effect="non-scaling-stroke" d="
  M 225.67 204.50
  L 299.58 204.50
  A 0.83 0.82 -87.7 0 0 300.40 203.73
  L 305.28 147.68
  A 0.86 0.85 -87.5 0 0 304.43 146.75
  L 226.00 146.79"
/>
</g>
<path fill="#1572b6" d="
  M 448.10 31.07
  Q 429.07 245.58 409.84 459.78
  A 0.99 0.99 -5.1 0 1 409.11 460.65
  L 226.46 511.30
  A 4.87 4.80 44.6 0 1 223.87 511.30
  L 42.37 460.88
  A 1.90 1.89 -84.9 0 1 41.00 459.23
  L 0.23 1.26
  A 0.70 0.70 -2.6 0 1 0.93 0.50
  L 450.01 0.50
  A 0.74 0.74 2.5 0 1 450.75 1.30
  Q 449.42 16.16 448.10 31.07
  Z
  M 225.25 90.46
  L 84.93 90.50
  A 0.47 0.46 -2.8 0 0 84.46 91.01
  L 89.39 146.06
  A 0.55 0.54 -2.2 0 0 89.94 146.56
  L 225.75 146.71
  L 226.00 146.79
  Q 225.51 147.70 225.50 149.75
  Q 225.37 177.13 225.67 204.50
  Q 225.73 204.84 225.29 204.75
  Q 214.39 204.32 203.50 204.48
  Q 191.18 204.66 183.51 204.55
  Q 171.73 204.38 159.41 204.51
  A 0.89 0.88 87.3 0 0 158.54 205.47
  L 163.36 260.47
  A 0.86 0.85 87.4 0 0 164.21 261.25
  L 225.17 261.23
  L 225.75 261.29
  Q 225.31 304.02 225.50 346.75
  Q 225.51 349.68 226.04 351.00
  Q 225.98 351.23 225.75 351.29
  L 163.43 334.45
  A 0.76 0.72 5.5 0 1 162.88 333.82
  L 158.99 290.42
  A 1.27 1.23 87.2 0 0 157.75 289.26
  L 102.69 289.43
  A 0.47 0.46 87.7 0 0 102.23 289.94
  L 109.89 377.04
  A 1.37 1.35 5.7 0 0 110.88 378.23
  L 226.38 410.28
  Q 225.50 410.89 225.50 413.00
  Q 225.50 442.00 225.50 471.70
  A 0.58 0.58 82.4 0 0 226.23 472.26
  L 373.81 431.41
  A 1.25 1.25 84.9 0 0 374.72 430.32
  L 409.59 38.96
  A 0.88 0.87 -87.3 0 0 408.72 38.00
  L 226.29 38.00
  A 0.81 0.80 90.0 0 0 225.49 38.81
  L 225.25 90.46
  Z"
/>
<path fill="#33a9dc" d="
  M 226.38 410.28
  L 226.48 409.83
  L 340.38 378.27
  A 1.36 1.36 -5.6 0 0 341.38 377.07
  L 366.89 91.07
  A 0.46 0.45 -87.1 0 0 366.44 90.56
  L 225.50 90.54
  L 225.25 90.46
  L 225.49 38.81
  A 0.81 0.80 90.0 0 1 226.29 38.00
  L 408.72 38.00
  A 0.88 0.87 -87.3 0 1 409.59 38.96
  L 374.72 430.32
  A 1.25 1.25 84.9 0 1 373.81 431.41
  L 226.23 472.26
  A 0.58 0.58 82.4 0 1 225.50 471.70
  Q 225.50 442.00 225.50 413.00
  Q 225.50 410.89 226.38 410.28
  Z"
/>
<path fill="#ebebeb" d="
  M 225.25 90.46
  L 225.50 90.54
  L 225.75 146.71
  L 89.94 146.56
  A 0.55 0.54 -2.2 0 1 89.39 146.06
  L 84.46 91.01
  A 0.47 0.46 -2.8 0 1 84.93 90.50
  L 225.25 90.46
  Z"
/>
<path fill="#ffffff" d="
  M 225.50 90.54
  L 366.44 90.56
  A 0.46 0.45 -87.1 0 1 366.89 91.07
  L 341.38 377.07
  A 1.36 1.36 -5.9 0 1 340.38 378.27
  L 226.48 409.83
  Q 226.20 407.02 226.26 404.31
  Q 226.81 378.53 226.04 352.76
  Q 226.01 352.02 225.75 351.29
  Q 225.98 351.23 226.04 351.00
  L 288.13 334.45
  A 0.50 0.50 -5.0 0 0 288.50 334.01
  L 295.09 261.79
  A 0.49 0.49 -87.3 0 0 294.60 261.25
  L 225.75 261.29
  L 225.17 261.23
  Q 225.90 232.97 225.29 204.75
  Q 225.73 204.84 225.67 204.50
  L 299.58 204.50
  A 0.83 0.82 -87.7 0 0 300.40 203.73
  L 305.28 147.68
  A 0.86 0.85 -87.5 0 0 304.43 146.75
  L 226.00 146.79
  L 225.75 146.71
  L 225.50 90.54
  Z"
/>
<path fill="#33a9dc" d="
  M 226.00 146.79
  L 304.43 146.75
  A 0.86 0.85 -87.5 0 1 305.28 147.68
  L 300.40 203.73
  A 0.83 0.82 -87.7 0 1 299.58 204.50
  L 225.67 204.50
  Q 225.37 177.13 225.50 149.75
  Q 225.51 147.70 226.00 146.79
  Z"
/>
<path fill="#ebebeb" d="
  M 225.29 204.75
  Q 225.90 232.97 225.17 261.23
  L 164.21 261.25
  A 0.86 0.85 87.4 0 1 163.36 260.47
  L 158.54 205.47
  A 0.89 0.88 87.3 0 1 159.41 204.51
  Q 171.73 204.38 183.51 204.55
  Q 191.18 204.66 203.50 204.48
  Q 214.39 204.32 225.29 204.75
  Z"
/>
<path fill="#33a9dc" d="
  M 225.75 261.29
  L 294.60 261.25
  A 0.49 0.49 -87.3 0 1 295.09 261.79
  L 288.50 334.01
  A 0.50 0.50 -5.0 0 1 288.13 334.45
  L 226.04 351.00
  Q 225.51 349.68 225.50 346.75
  Q 225.31 304.02 225.75 261.29
  Z"
/>
<path fill="#ebebeb" d="
  M 225.75 351.29
  Q 226.01 352.02 226.04 352.76
  Q 226.81 378.53 226.26 404.31
  Q 226.20 407.02 226.48 409.83
  L 226.38 410.28
  L 110.88 378.23
  A 1.37 1.35 5.7 0 1 109.89 377.04
  L 102.23 289.94
  A 0.47 0.46 87.7 0 1 102.69 289.43
  L 157.75 289.26
  A 1.27 1.23 87.2 0 1 158.99 290.42
  L 162.88 333.82
  A 0.76 0.72 5.5 0 0 163.43 334.45
  L 225.75 351.29
  Z"
/>
</svg>
