<?xml version="1.0" encoding="UTF-8" standalone="no"?>
<!DOCTYPE svg PUBLIC "-//W3C//DTD SVG 1.1//EN" "http://www.w3.org/Graphics/SVG/1.1/DTD/svg11.dtd">
<svg xmlns="http://www.w3.org/2000/svg" version="1.1" viewBox="0 0 383 383">
<path fill="#f05033" d="
  M 188.06 0.00
  L 194.56 0.00
  Q 202.94 1.48 208.50 7.00
  Q 273.14 71.13 373.95 172.55
  Q 378.46 177.09 380.09 180.23
  Q 382.39 184.67 383.00 189.81
  L 383.00 194.06
  Q 381.98 201.33 377.91 206.89
  Q 377.00 208.13 368.54 216.58
  Q 291.56 293.58 214.73 370.73
  Q 209.00 376.48 205.94 378.69
  Q 201.16 382.12 193.69 383.00
  L 189.69 383.00
  Q 182.40 382.01 176.84 377.91
  Q 175.79 377.14 167.15 368.56
  Q 87.53 289.47 8.44 209.84
  Q 4.49 205.86 2.93 202.93
  Q 0.82 198.97 0.00 194.44
  L 0.00 187.69
  Q 1.20 180.96 5.09 175.79
  Q 5.84 174.78 13.92 166.71
  Q 67.26 113.36 121.21 59.42
  A 0.94 0.93 -44.8 0 1 122.54 59.42
  L 165.00 101.88
  A 0.94 0.93 -58.6 0 1 165.23 102.85
  Q 164.02 106.27 163.47 109.61
  Q 162.90 113.00 163.33 116.53
  Q 165.35 133.09 180.74 140.60
  A 0.80 0.80 13.1 0 1 181.19 141.32
  L 181.25 245.55
  A 0.88 0.87 77.1 0 1 180.76 246.34
  Q 170.55 251.37 166.12 260.48
  Q 161.86 269.22 163.98 279.44
  Q 166.41 291.17 176.59 297.57
  Q 184.05 302.27 192.27 302.36
  Q 201.13 302.47 208.69 297.19
  Q 220.20 289.14 221.31 276.10
  Q 222.08 267.08 218.01 259.44
  Q 213.91 251.75 205.76 247.18
  A 0.88 0.83 15.3 0 1 205.31 246.44
  L 205.25 143.44
  Q 205.25 142.38 206.00 143.13
  L 244.76 181.88
  A 0.81 0.81 33.3 0 1 244.94 182.73
  Q 243.53 186.44 243.03 190.18
  Q 242.53 193.88 243.19 197.80
  Q 244.74 206.97 250.81 213.39
  Q 256.56 219.47 265.12 221.76
  Q 279.03 225.49 290.94 215.69
  Q 298.03 209.84 300.25 200.90
  Q 302.22 192.98 299.92 185.14
  Q 297.51 176.90 290.97 171.38
  Q 285.12 166.43 278.06 164.95
  Q 270.86 163.43 263.12 165.69
  A 1.44 1.41 -30.3 0 1 261.71 165.34
  L 220.35 123.85
  A 0.86 0.85 -60.0 0 1 220.13 123.02
  Q 224.11 107.79 215.91 96.73
  Q 210.30 89.19 201.77 86.18
  Q 192.96 83.07 183.16 85.95
  A 0.77 0.77 59.2 0 1 182.38 85.75
  L 138.99 42.37
  A 0.53 0.53 0.0 0 1 138.99 41.63
  Q 153.26 27.37 167.29 13.34
  Q 174.86 5.76 176.27 4.74
  Q 181.41 1.02 188.06 0.00
  Z"
/>
</svg>
