<?xml version="1.0" encoding="UTF-8" standalone="no"?>
<!DOCTYPE svg PUBLIC "-//W3C//DTD SVG 1.1//EN" "http://www.w3.org/Graphics/SVG/1.1/DTD/svg11.dtd">
<svg xmlns="http://www.w3.org/2000/svg" version="1.1" viewBox="0 0 512 512">
<path fill="#000000" d="
  M 512.00 259.06
  L 512.00 264.56
  Q 511.36 288.10 508.44 305.69
  Q 498.09 367.89 458.44 418.69
  Q 410.82 479.70 339.31 504.31
  Q 333.52 506.31 328.60 505.07
  Q 324.05 503.93 321.80 500.08
  Q 319.66 496.41 319.75 491.25
  Q 320.10 471.08 319.55 420.54
  Q 319.49 415.07 319.01 411.49
  Q 318.48 407.45 317.50 402.50
  Q 314.52 387.39 303.21 376.08
  Q 302.23 375.11 303.60 374.96
  Q 318.50 373.40 333.40 369.80
  Q 354.33 364.74 372.59 353.36
  Q 389.71 342.70 399.19 328.19
  Q 411.29 309.65 415.99 284.75
  Q 418.87 269.45 419.25 251.00
  Q 420.07 211.08 393.59 180.90
  A 1.54 1.52 -55.5 0 1 393.31 179.34
  Q 396.88 169.98 397.99 160.08
  Q 399.02 150.96 397.70 140.44
  Q 395.91 126.29 390.55 112.89
  A 1.33 1.31 -5.6 0 0 389.56 112.09
  Q 382.60 110.77 375.80 112.28
  Q 369.40 113.71 363.27 116.06
  Q 340.74 124.73 320.68 138.19
  A 1.73 1.73 35.3 0 1 319.27 138.43
  Q 256.02 121.64 192.73 138.37
  A 1.26 1.22 -37.9 0 1 191.82 138.27
  Q 188.56 136.50 185.46 134.51
  Q 180.35 131.22 178.78 130.33
  Q 165.23 122.63 150.66 117.13
  Q 141.02 113.49 136.86 112.61
  Q 129.69 111.09 122.19 112.01
  A 1.25 1.24 -82.8 0 0 121.18 112.80
  Q 116.13 126.10 114.25 139.50
  Q 111.41 159.71 118.85 179.68
  A 1.05 1.05 56.2 0 1 118.64 180.75
  Q 95.18 206.34 93.17 241.51
  Q 91.86 264.38 96.54 286.79
  Q 100.48 305.67 109.06 321.69
  Q 118.01 338.38 133.94 349.81
  Q 146.42 358.77 161.56 364.69
  Q 170.06 368.01 180.70 370.45
  Q 194.31 373.56 208.21 375.00
  Q 209.42 375.12 208.59 376.01
  Q 195.45 390.07 193.29 408.41
  A 2.02 2.02 -7.7 0 1 192.05 410.04
  Q 176.68 416.32 160.57 416.14
  Q 152.72 416.05 146.69 413.82
  Q 139.96 411.34 134.22 406.76
  Q 125.42 399.74 119.79 389.98
  Q 111.38 375.40 96.67 367.24
  Q 88.09 362.48 78.25 362.11
  Q 73.74 361.94 69.55 363.57
  Q 66.89 364.60 68.17 367.15
  Q 71.47 373.71 77.72 377.57
  Q 82.00 380.22 82.03 380.24
  Q 85.76 382.93 88.50 386.00
  Q 97.98 396.63 103.95 410.30
  Q 105.57 414.01 107.19 417.72
  Q 109.11 422.11 111.01 424.85
  Q 120.13 438.00 134.80 443.10
  Q 142.12 445.64 154.39 446.93
  Q 172.58 448.84 191.33 445.53
  A 0.76 0.76 -5.4 0 1 192.23 446.27
  Q 192.62 468.06 192.51 488.94
  Q 192.51 489.04 192.63 492.07
  Q 192.85 497.78 189.39 501.61
  Q 186.36 504.97 181.59 505.47
  Q 177.25 505.93 172.50 504.25
  Q 139.59 492.63 112.27 474.40
  Q 104.16 468.99 96.22 462.51
  Q 49.68 424.51 23.72 370.27
  Q 19.31 361.05 15.92 351.87
  Q 3.31 317.64 0.95 280.99
  Q 0.43 272.96 0.00 264.94
  L 0.00 259.19
  Q 0.46 242.52 2.25 228.25
  Q 8.09 181.81 30.74 140.28
  Q 55.41 95.06 95.16 62.95
  Q 102.84 56.75 111.22 51.03
  Q 182.68 2.24 270.75 6.75
  Q 315.16 9.02 356.44 26.56
  Q 399.90 45.03 434.63 78.72
  Q 441.76 85.63 448.38 93.24
  Q 509.73 163.68 512.00 259.06
  Z"
/>
</svg>
