<?xml version="1.0" encoding="UTF-8" standalone="no"?>
<!DOCTYPE svg PUBLIC "-//W3C//DTD SVG 1.1//EN" "http://www.w3.org/Graphics/SVG/1.1/DTD/svg11.dtd">
<svg xmlns="http://www.w3.org/2000/svg" version="1.1" viewBox="0 0 512 512">
<g stroke-width="2.00" fill="none" stroke-linecap="butt">
<path stroke="#f2a693" vector-effect="non-scaling-stroke" d="
  M 256.00 93.96
  L 255.75 94.04"
/>
<path stroke="#e89c89" vector-effect="non-scaling-stroke" d="
  M 255.75 94.04
  L 114.71 94.00
  A 0.50 0.49 -2.6 0 0 114.21 94.54
  Q 121.43 176.38 128.75 257.75
  Q 129.20 262.77 129.49 264.70
  A 0.57 0.56 85.9 0 0 130.05 265.19
  L 255.60 265.22"
/>
<path stroke="#f2a693" vector-effect="non-scaling-stroke" d="
  M 255.60 265.22
  L 256.00 265.29"
/>
<path stroke="#eb5928" vector-effect="non-scaling-stroke" d="
  M 256.00 265.29
  L 256.04 355.00"
/>
<path stroke="#f2a693" vector-effect="non-scaling-stroke" d="
  M 256.04 355.00
  Q 255.87 355.34 255.50 355.29"
/>
<path stroke="#e89c89" vector-effect="non-scaling-stroke" d="
  M 255.50 355.29
  L 193.66 338.58
  A 1.04 1.04 4.9 0 1 192.90 337.68
  L 188.97 293.94
  A 0.76 0.75 87.5 0 0 188.22 293.25
  L 132.81 293.25
  A 0.85 0.84 87.5 0 0 131.97 294.17
  L 139.79 381.66
  A 0.74 0.73 -84.3 0 0 140.32 382.31
  L 255.75 414.21"
/>
<path stroke="#f2a693" vector-effect="non-scaling-stroke" d="
  M 255.75 414.21
  L 256.00 414.29"
/>
<path stroke="#eb5928" vector-effect="non-scaling-stroke" d="
  M 256.00 414.29
  L 256.00 472.45
  A 0.38 0.38 82.0 0 0 256.49 472.82
  L 404.95 431.57
  A 0.72 0.72 84.9 0 0 405.48 430.93
  L 440.58 38.12
  A 0.51 0.51 -87.4 0 0 440.07 37.56
  L 256.75 37.50
  A 0.69 0.68 0.0 0 0 256.06 38.18
  L 256.00 93.96"
/>
<path stroke="#f8b294" vector-effect="non-scaling-stroke" d="
  M 256.00 414.29
  L 370.79 382.52
  A 1.52 1.51 84.8 0 0 371.89 381.19
  L 387.27 209.01
  A 0.47 0.46 2.8 0 0 386.80 208.50
  L 256.00 208.50"
/>
<path stroke="#eb5928" vector-effect="non-scaling-stroke" d="
  M 256.00 208.50
  L 256.25 150.79"
/>
<path stroke="#f8b294" vector-effect="non-scaling-stroke" d="
  M 256.25 150.79
  L 391.94 150.69
  A 0.54 0.54 -87.7 0 0 392.48 150.19
  L 397.47 94.55
  A 0.50 0.50 -87.4 0 0 396.97 94.00
  L 256.00 93.96"
/>
<path stroke="#f5f5f5" vector-effect="non-scaling-stroke" d="
  M 255.75 94.04
  L 255.75 150.71"
/>
<path stroke="#e89c89" vector-effect="non-scaling-stroke" d="
  M 255.75 150.71
  L 176.70 150.75
  A 0.47 0.47 87.2 0 0 176.23 151.27
  L 181.29 207.99
  A 0.57 0.56 87.2 0 0 181.85 208.50
  L 256.00 208.50"
/>
<path stroke="#f5f5f5" vector-effect="non-scaling-stroke" d="
  M 256.00 208.50
  L 255.60 265.22"
/>
<path stroke="#f5f5f5" vector-effect="non-scaling-stroke" d="
  M 255.75 414.21
  L 255.50 355.29"
/>
<path stroke="#f8b294" vector-effect="non-scaling-stroke" d="
  M 256.04 355.00
  L 318.13 338.39
  A 0.81 0.80 85.4 0 0 318.73 337.68
  L 325.14 265.81
  A 0.46 0.45 2.8 0 0 324.68 265.31
  L 256.00 265.29"
/>
<path stroke="#f2a693" vector-effect="non-scaling-stroke" d="
  M 256.25 150.79
  L 255.75 150.71"
/>
</g>
<path fill="#e44d26" d="
  M 30.35 0.02
  L 481.81 0.00
  L 440.78 460.36
  A 0.74 0.73 85.5 0 1 440.24 461.00
  L 256.94 512.00
  L 254.69 512.00
  L 72.41 461.29
  A 1.73 1.72 5.3 0 1 71.14 459.77
  L 30.35 0.02
  Z
  M 256.00 93.96
  L 255.75 94.04
  L 114.71 94.00
  A 0.50 0.49 -2.6 0 0 114.21 94.54
  Q 121.43 176.38 128.75 257.75
  Q 129.20 262.77 129.49 264.70
  A 0.57 0.56 85.9 0 0 130.05 265.19
  L 255.60 265.22
  L 256.00 265.29
  L 256.04 355.00
  Q 255.87 355.34 255.50 355.29
  L 193.66 338.58
  A 1.04 1.04 4.9 0 1 192.90 337.68
  L 188.97 293.94
  A 0.76 0.75 87.5 0 0 188.22 293.25
  L 132.81 293.25
  A 0.85 0.84 87.5 0 0 131.97 294.17
  L 139.79 381.66
  A 0.74 0.73 -84.3 0 0 140.32 382.31
  L 255.75 414.21
  L 256.00 414.29
  L 256.00 472.45
  A 0.38 0.38 82.0 0 0 256.49 472.82
  L 404.95 431.57
  A 0.72 0.72 84.9 0 0 405.48 430.93
  L 440.58 38.12
  A 0.51 0.51 -87.4 0 0 440.07 37.56
  L 256.75 37.50
  A 0.69 0.68 0.0 0 0 256.06 38.18
  L 256.00 93.96
  Z"
/>
<path fill="#f16529" d="
  M 256.00 414.29
  L 370.79 382.52
  A 1.52 1.51 84.8 0 0 371.89 381.19
  L 387.27 209.01
  A 0.47 0.46 2.8 0 0 386.80 208.50
  L 256.00 208.50
  L 256.25 150.79
  L 391.94 150.69
  A 0.54 0.54 -87.7 0 0 392.48 150.19
  L 397.47 94.55
  A 0.50 0.50 -87.4 0 0 396.97 94.00
  L 256.00 93.96
  L 256.06 38.18
  A 0.69 0.68 0.0 0 1 256.75 37.50
  L 440.07 37.56
  A 0.51 0.51 -87.4 0 1 440.58 38.12
  L 405.48 430.93
  A 0.72 0.72 84.9 0 1 404.95 431.57
  L 256.49 472.82
  A 0.38 0.38 82.0 0 1 256.00 472.45
  L 256.00 414.29
  Z"
/>
<path fill="#ebebeb" d="
  M 255.75 94.04
  L 255.75 150.71
  L 176.70 150.75
  A 0.47 0.47 87.2 0 0 176.23 151.27
  L 181.29 207.99
  A 0.57 0.56 87.2 0 0 181.85 208.50
  L 256.00 208.50
  L 255.60 265.22
  L 130.05 265.19
  A 0.57 0.56 85.9 0 1 129.49 264.70
  Q 129.20 262.77 128.75 257.75
  Q 121.43 176.38 114.21 94.54
  A 0.50 0.49 -2.6 0 1 114.71 94.00
  L 255.75 94.04
  Z"
/>
<path fill="#ffffff" d="
  M 255.75 94.04
  L 256.00 93.96
  L 396.97 94.00
  A 0.50 0.50 -87.4 0 1 397.47 94.55
  L 392.48 150.19
  A 0.54 0.54 -87.7 0 1 391.94 150.69
  L 256.25 150.79
  L 255.75 150.71
  L 255.75 94.04
  Z"
/>
<path fill="#e44d26" d="
  M 255.75 150.71
  L 256.25 150.79
  L 256.00 208.50
  L 181.85 208.50
  A 0.57 0.56 87.2 0 1 181.29 207.99
  L 176.23 151.27
  A 0.47 0.47 87.2 0 1 176.70 150.75
  L 255.75 150.71
  Z"
/>
<path fill="#ffffff" d="
  M 256.00 208.50
  L 386.80 208.50
  A 0.47 0.46 2.8 0 1 387.27 209.01
  L 371.89 381.19
  A 1.52 1.51 84.8 0 1 370.79 382.52
  L 256.00 414.29
  L 255.75 414.21
  L 255.50 355.29
  Q 255.87 355.34 256.04 355.00
  L 318.13 338.39
  A 0.81 0.80 85.4 0 0 318.73 337.68
  L 325.14 265.81
  A 0.46 0.45 2.8 0 0 324.68 265.31
  L 256.00 265.29
  L 255.60 265.22
  L 256.00 208.50
  Z"
/>
<path fill="#f16529" d="
  M 256.00 265.29
  L 324.68 265.31
  A 0.46 0.45 2.8 0 1 325.14 265.81
  L 318.73 337.68
  A 0.81 0.80 85.4 0 1 318.13 338.39
  L 256.04 355.00
  L 256.00 265.29
  Z"
/>
<path fill="#ebebeb" d="
  M 255.50 355.29
  L 255.75 414.21
  L 140.32 382.31
  A 0.74 0.73 -84.3 0 1 139.79 381.66
  L 131.97 294.17
  A 0.85 0.84 87.5 0 1 132.81 293.25
  L 188.22 293.25
  A 0.76 0.75 87.5 0 1 188.97 293.94
  L 192.90 337.68
  A 1.04 1.04 4.9 0 0 193.66 338.58
  L 255.50 355.29
  Z"
/>
</svg>
