<?xml version="1.0" encoding="UTF-8" standalone="no"?>
<!DOCTYPE svg PUBLIC "-//W3C//DTD SVG 1.1//EN" "http://www.w3.org/Graphics/SVG/1.1/DTD/svg11.dtd">
<svg xmlns="http://www.w3.org/2000/svg" version="1.1" viewBox="0 0 512 512">
<path fill="#f44336" d="
  M 220.56 238.68
  Q 211.33 229.45 202.81 217.19
  Q 195.37 206.47 191.93 195.06
  Q 189.01 185.39 190.92 176.00
  Q 192.33 169.06 197.21 161.25
  Q 201.51 154.38 207.27 148.52
  Q 214.66 141.02 222.71 134.24
  Q 241.75 118.21 256.94 104.69
  Q 265.71 96.87 273.50 86.96
  Q 283.53 74.21 284.50 59.50
  Q 284.95 52.70 281.86 44.28
  Q 281.66 43.76 281.96 43.82
  Q 282.11 43.86 282.31 44.19
  Q 285.53 49.40 288.06 54.97
  Q 299.51 80.06 287.75 105.03
  Q 282.80 115.52 275.57 124.59
  Q 263.50 139.70 248.31 155.06
  Q 243.75 159.67 238.82 165.43
  Q 232.02 173.34 229.92 176.30
  Q 224.66 183.71 222.25 192.00
  Q 220.95 196.48 221.64 201.33
  Q 222.07 204.34 224.35 210.11
  Q 235.58 238.62 251.58 264.47
  Q 252.28 265.60 251.20 264.82
  Q 234.84 252.96 220.56 238.68
  Z"
/>
<path fill="#f44336" d="
  M 294.81 256.06
  Q 282.54 269.71 264.95 273.85
  Q 264.01 274.07 264.71 273.40
  Q 271.03 267.33 275.10 260.33
  Q 282.27 248.00 276.69 234.81
  Q 275.24 231.38 270.98 225.20
  Q 266.55 218.76 262.62 212.00
  Q 257.64 203.47 256.15 197.85
  Q 253.61 188.36 255.57 178.26
  Q 259.24 159.35 273.56 146.56
  Q 282.85 138.26 294.12 132.93
  Q 319.27 121.02 348.48 118.10
  Q 349.70 117.98 348.66 118.64
  Q 323.88 134.30 302.39 153.39
  Q 296.49 158.64 291.75 164.88
  Q 286.59 171.68 285.65 177.11
  Q 284.45 184.04 287.69 191.31
  Q 291.09 198.96 292.36 201.16
  Q 295.79 207.10 298.68 213.30
  Q 302.24 220.93 303.27 226.15
  Q 306.60 242.95 294.81 256.06
  Z"
/>
<path fill="#1565c0" d="
  M 129.56 289.23
  Q 124.47 285.58 124.78 280.12
  Q 124.98 276.45 127.78 273.13
  Q 130.43 270.00 134.06 268.31
  Q 144.21 263.62 155.60 261.42
  Q 161.86 260.21 175.43 258.85
  Q 190.04 257.39 204.75 257.25
  Q 205.02 257.25 205.26 257.29
  Q 206.88 257.57 205.47 257.87
  Q 189.21 261.44 174.62 269.43
  Q 171.80 270.97 170.57 273.32
  Q 169.23 275.88 171.99 276.75
  Q 178.60 278.81 185.51 279.40
  Q 205.84 281.11 226.25 280.98
  Q 264.47 280.75 302.50 276.95
  Q 319.10 275.29 335.52 272.25
  Q 337.10 271.95 335.86 272.98
  Q 324.71 282.21 312.74 290.74
  Q 310.70 292.19 308.22 292.66
  Q 251.88 303.38 194.50 302.04
  Q 176.90 301.63 159.48 299.11
  Q 146.07 297.18 134.56 292.19
  Q 132.33 291.22 129.56 289.23
  Z"
/>
<path fill="#1565c0" d="
  M 353.44 266.56
  Q 351.09 266.28 343.50 266.72
  Q 343.00 266.75 343.40 266.45
  Q 351.47 260.58 360.87 258.44
  Q 371.07 256.13 379.58 258.59
  Q 391.85 262.15 397.44 275.06
  Q 399.55 279.94 400.01 286.50
  Q 401.37 305.46 390.44 319.94
  Q 384.67 327.58 375.33 333.51
  Q 356.58 345.42 335.08 348.61
  Q 333.95 348.78 334.87 348.10
  Q 347.42 338.91 357.49 327.98
  Q 365.65 319.12 370.94 309.44
  Q 374.99 302.02 376.20 292.91
  Q 378.07 278.98 366.59 271.39
  Q 360.60 267.43 353.44 266.56
  Z"
/>
<path fill="#1565c0" d="
  M 322.03 330.83
  Q 322.52 331.14 321.98 331.35
  Q 290.98 343.27 257.76 346.10
  Q 233.63 348.16 209.50 346.02
  Q 197.62 344.97 182.50 341.50
  Q 172.39 339.18 164.18 334.67
  Q 158.63 331.61 156.92 328.60
  Q 154.85 324.96 156.83 320.86
  Q 158.09 318.24 161.48 315.31
  Q 171.60 306.54 185.65 304.95
  Q 187.98 304.69 186.19 306.20
  Q 181.18 310.43 183.62 314.50
  Q 185.03 316.86 189.31 318.89
  Q 193.61 320.94 197.75 321.75
  Q 213.45 324.84 230.26 324.80
  Q 239.60 324.77 250.24 324.05
  Q 274.10 322.43 297.49 315.61
  A 1.13 1.10 -36.4 0 1 298.42 315.74
  L 322.03 330.83
  Z"
/>
<path fill="#1565c0" d="
  M 315.03 370.25
  A 0.67 0.67 -42.5 0 1 314.98 371.39
  Q 301.77 378.65 287.73 382.17
  Q 251.52 391.27 214.24 388.45
  Q 198.85 387.28 184.32 382.16
  Q 180.33 380.76 176.91 378.39
  Q 172.95 375.64 171.54 372.72
  Q 169.65 368.79 171.56 364.31
  Q 173.65 359.41 178.90 355.69
  Q 187.56 349.57 198.46 349.24
  Q 199.23 349.22 198.74 349.81
  Q 194.84 354.58 198.81 358.44
  Q 199.59 359.19 202.20 360.29
  Q 203.89 361.00 205.88 361.46
  Q 215.91 363.77 226.25 363.79
  Q 245.40 363.82 264.26 360.53
  Q 277.05 358.30 289.23 353.67
  A 1.01 0.99 -38.3 0 1 290.15 353.77
  L 315.03 370.25
  Z"
/>
<path fill="#1565c0" d="
  M 381.17 379.56
  Q 386.09 383.47 386.81 389.17
  Q 387.35 393.42 385.35 398.12
  Q 383.50 402.49 380.06 405.81
  Q 375.90 409.84 370.18 413.13
  Q 359.50 419.27 347.72 422.89
  Q 324.60 430.00 300.68 433.13
  Q 292.64 434.18 280.81 435.26
  Q 227.76 440.10 174.91 433.57
  Q 163.94 432.22 155.17 430.43
  Q 144.88 428.33 134.77 425.45
  Q 122.34 421.90 111.75 416.00
  Q 107.00 413.35 102.59 409.17
  Q 96.17 403.08 96.00 395.25
  Q 95.88 389.93 100.29 385.29
  Q 104.66 380.70 110.40 378.01
  Q 130.94 368.39 154.61 372.18
  Q 156.19 372.43 157.54 373.29
  Q 163.37 376.97 169.77 380.52
  Q 170.08 380.69 169.98 380.82
  A 0.43 0.22 15.0 0 1 169.60 380.90
  Q 153.01 378.16 138.42 386.15
  Q 133.45 388.87 133.93 393.50
  Q 134.24 396.46 137.04 399.14
  Q 139.58 401.57 142.56 402.94
  Q 156.58 409.34 173.01 411.93
  Q 233.65 421.50 294.77 415.44
  Q 314.10 413.52 333.00 409.01
  Q 345.28 406.08 356.67 400.64
  Q 362.57 397.81 367.35 393.36
  Q 375.71 385.57 372.00 374.49
  Q 371.86 374.09 372.26 374.25
  Q 377.08 376.29 381.17 379.56
  Z"
/>
<path fill="#1565c0" d="
  M 250.19 468.27
  Q 200.43 464.85 153.06 446.94
  Q 150.51 445.97 148.92 445.01
  Q 148.47 444.74 148.99 444.86
  Q 185.87 453.47 227.25 456.50
  Q 274.94 459.99 321.00 452.50
  Q 339.58 449.48 359.27 443.32
  Q 379.73 436.92 397.99 425.74
  Q 407.09 420.17 414.78 412.84
  Q 416.16 411.52 415.94 413.42
  Q 414.70 423.90 407.81 431.81
  Q 399.83 440.99 387.54 447.27
  Q 367.87 457.34 346.25 462.01
  Q 308.59 470.16 270.18 469.21
  Q 260.33 468.97 250.19 468.27
  Z"
/>
</svg>
