<?xml version="1.0" encoding="UTF-8" standalone="no"?>
<!DOCTYPE svg PUBLIC "-//W3C//DTD SVG 1.1//EN" "http://www.w3.org/Graphics/SVG/1.1/DTD/svg11.dtd">
<svg xmlns="http://www.w3.org/2000/svg" version="1.1" viewBox="0 0 1052 1052">
<g stroke-width="2.00" fill="none" stroke-linecap="butt">
<path stroke="#f8eda7" vector-effect="non-scaling-stroke" d="
  M 0.00 1051.44
  Q 0.48 1051.75 1.75 1051.75
  Q 525.75 1051.75 1050.37 1051.75
  A 0.88 0.88 0.0 0 0 1051.25 1050.87
  L 1051.19 1.70
  A 0.71 0.70 -0.0 0 0 1050.48 1.00
  Q 536.50 1.00 23.50 1.00
  Q 6.71 1.00 0.00 1.19"
/>
<path stroke="#918740" vector-effect="non-scaling-stroke" d="
  M 694.34 708.42
  Q 703.01 716.76 711.56 722.94
  Q 729.96 736.24 751.56 746.69
  Q 766.62 753.98 796.12 766.31
  Q 822.81 777.48 839.44 787.06
  Q 852.12 794.37 859.44 803.06
  Q 871.17 816.99 869.24 836.75
  Q 867.90 850.37 859.81 859.56
  Q 851.77 868.70 841.94 873.19
  Q 826.44 880.26 808.99 881.05
  Q 799.49 881.48 789.02 880.41
  Q 750.55 876.49 724.24 847.00
  Q 714.09 835.62 705.86 822.03
  A 0.91 0.91 59.5 0 0 704.63 821.71
  L 625.79 867.41
  A 0.90 0.89 61.0 0 0 625.45 868.60
  Q 642.20 901.00 669.48 923.96
  Q 677.00 930.28 685.55 935.87
  Q 717.20 956.53 754.73 963.84
  Q 783.20 969.38 816.50 968.25
  Q 844.29 967.30 872.25 958.75
  Q 901.45 949.82 924.10 930.97
  Q 932.05 924.35 938.39 917.00
  Q 949.05 904.65 955.69 890.44
  Q 965.29 869.89 967.43 846.73
  Q 968.29 837.39 968.18 826.74
  Q 967.93 802.26 960.75 780.75
  Q 949.62 747.41 921.13 723.85
  Q 903.82 709.55 882.81 698.19
  Q 860.41 686.08 839.67 677.35
  Q 814.54 666.78 789.94 655.06
  Q 778.40 649.57 769.14 641.93
  Q 760.23 634.58 756.46 626.82
  Q 752.14 617.94 752.00 607.00
  Q 751.84 594.76 757.23 585.13
  Q 760.99 578.39 767.40 573.32
  Q 773.78 568.29 781.50 566.00
  Q 797.54 561.25 814.78 564.88
  Q 833.68 568.86 846.59 583.16
  Q 855.60 593.14 862.18 605.14
  A 0.51 0.51 59.7 0 0 862.90 605.33
  L 938.73 556.66
  A 0.61 0.61 59.0 0 0 938.93 555.84
  Q 930.30 540.55 919.34 527.53
  Q 912.59 519.51 905.45 513.16
  Q 876.28 487.24 836.25 480.50
  Q 800.52 474.49 766.07 480.34
  Q 755.74 482.09 746.61 484.89
  Q 726.67 491.01 710.81 501.56
  Q 664.35 532.47 656.15 587.56
  Q 654.72 597.18 654.64 607.50
  Q 654.46 628.79 659.50 648.75
  Q 668.22 683.31 694.34 708.42"
/>
<path stroke="#918740" vector-effect="non-scaling-stroke" d="
  M 311.69 927.81
  Q 342.44 956.37 383.64 964.59
  Q 392.56 966.37 403.43 967.52
  Q 441.43 971.54 476.50 962.00
  Q 538.28 945.19 560.51 886.46
  Q 563.88 877.56 566.25 867.31
  Q 571.24 845.77 571.33 823.50
  Q 571.34 820.25 571.34 817.00
  Q 571.50 651.00 571.50 483.82
  A 0.82 0.82 0.0 0 0 570.68 483.00
  L 473.44 483.00
  A 0.69 0.69 0.0 0 0 472.75 483.69
  Q 472.75 651.00 472.71 817.75
  Q 472.71 827.41 471.55 837.01
  Q 470.52 845.63 467.34 853.55
  Q 463.85 862.26 458.50 867.87
  Q 451.25 875.48 441.00 878.00
  Q 428.18 881.15 415.00 880.25
  Q 394.80 878.86 380.64 864.61
  Q 374.89 858.83 372.31 855.19
  Q 363.93 843.31 356.79 830.30
  A 0.55 0.55 59.9 0 0 356.02 830.09
  L 276.67 878.24
  A 0.56 0.56 61.6 0 0 276.46 878.95
  Q 289.60 907.30 311.69 927.81"
/>
</g>
<path fill="#ffffff" d="
  M 0.00 0.00
  L 1052.00 0.00
  L 1052.00 1052.00
  L 0.00 1052.00
  L 0.00 1051.44
  Q 0.48 1051.75 1.75 1051.75
  Q 525.75 1051.75 1050.37 1051.75
  A 0.88 0.88 0.0 0 0 1051.25 1050.87
  L 1051.19 1.70
  A 0.71 0.70 -0.0 0 0 1050.48 1.00
  Q 536.50 1.00 23.50 1.00
  Q 6.71 1.00 0.00 1.19
  L 0.00 0.00
  Z"
/>
<path fill="#f0db4f" d="
  M 0.00 1051.44
  L 0.00 1.19
  Q 6.71 1.00 23.50 1.00
  Q 536.50 1.00 1050.48 1.00
  A 0.71 0.70 0.0 0 1 1051.19 1.70
  L 1051.25 1050.87
  A 0.88 0.88 0.0 0 1 1050.37 1051.75
  Q 525.75 1051.75 1.75 1051.75
  Q 0.48 1051.75 0.00 1051.44
  Z
  M 694.34 708.42
  Q 703.01 716.76 711.56 722.94
  Q 729.96 736.24 751.56 746.69
  Q 766.62 753.98 796.12 766.31
  Q 822.81 777.48 839.44 787.06
  Q 852.12 794.37 859.44 803.06
  Q 871.17 816.99 869.24 836.75
  Q 867.90 850.37 859.81 859.56
  Q 851.77 868.70 841.94 873.19
  Q 826.44 880.26 808.99 881.05
  Q 799.49 881.48 789.02 880.41
  Q 750.55 876.49 724.24 847.00
  Q 714.09 835.62 705.86 822.03
  A 0.91 0.91 59.5 0 0 704.63 821.71
  L 625.79 867.41
  A 0.90 0.89 61.0 0 0 625.45 868.60
  Q 642.20 901.00 669.48 923.96
  Q 677.00 930.28 685.55 935.87
  Q 717.20 956.53 754.73 963.84
  Q 783.20 969.38 816.50 968.25
  Q 844.29 967.30 872.25 958.75
  Q 901.45 949.82 924.10 930.97
  Q 932.05 924.35 938.39 917.00
  Q 949.05 904.65 955.69 890.44
  Q 965.29 869.89 967.43 846.73
  Q 968.29 837.39 968.18 826.74
  Q 967.93 802.26 960.75 780.75
  Q 949.62 747.41 921.13 723.85
  Q 903.82 709.55 882.81 698.19
  Q 860.41 686.08 839.67 677.35
  Q 814.54 666.78 789.94 655.06
  Q 778.40 649.57 769.14 641.93
  Q 760.23 634.58 756.46 626.82
  Q 752.14 617.94 752.00 607.00
  Q 751.84 594.76 757.23 585.13
  Q 760.99 578.39 767.40 573.32
  Q 773.78 568.29 781.50 566.00
  Q 797.54 561.25 814.78 564.88
  Q 833.68 568.86 846.59 583.16
  Q 855.60 593.14 862.18 605.14
  A 0.51 0.51 59.7 0 0 862.90 605.33
  L 938.73 556.66
  A 0.61 0.61 59.0 0 0 938.93 555.84
  Q 930.30 540.55 919.34 527.53
  Q 912.59 519.51 905.45 513.16
  Q 876.28 487.24 836.25 480.50
  Q 800.52 474.49 766.07 480.34
  Q 755.74 482.09 746.61 484.89
  Q 726.67 491.01 710.81 501.56
  Q 664.35 532.47 656.15 587.56
  Q 654.72 597.18 654.64 607.50
  Q 654.46 628.79 659.50 648.75
  Q 668.22 683.31 694.34 708.42
  Z
  M 311.69 927.81
  Q 342.44 956.37 383.64 964.59
  Q 392.56 966.37 403.43 967.52
  Q 441.43 971.54 476.50 962.00
  Q 538.28 945.19 560.51 886.46
  Q 563.88 877.56 566.25 867.31
  Q 571.24 845.77 571.33 823.50
  Q 571.34 820.25 571.34 817.00
  Q 571.50 651.00 571.50 483.82
  A 0.82 0.82 0.0 0 0 570.68 483.00
  L 473.44 483.00
  A 0.69 0.69 0.0 0 0 472.75 483.69
  Q 472.75 651.00 472.71 817.75
  Q 472.71 827.41 471.55 837.01
  Q 470.52 845.63 467.34 853.55
  Q 463.85 862.26 458.50 867.87
  Q 451.25 875.48 441.00 878.00
  Q 428.18 881.15 415.00 880.25
  Q 394.80 878.86 380.64 864.61
  Q 374.89 858.83 372.31 855.19
  Q 363.93 843.31 356.79 830.30
  A 0.55 0.55 59.9 0 0 356.02 830.09
  L 276.67 878.24
  A 0.56 0.56 61.6 0 0 276.46 878.95
  Q 289.60 907.30 311.69 927.81
  Z"
/>
<path fill="#323330" d="
  M 694.34 708.42
  Q 668.22 683.31 659.50 648.75
  Q 654.46 628.79 654.64 607.50
  Q 654.72 597.18 656.15 587.56
  Q 664.35 532.47 710.81 501.56
  Q 726.67 491.01 746.61 484.89
  Q 755.74 482.09 766.07 480.34
  Q 800.52 474.49 836.25 480.50
  Q 876.28 487.24 905.45 513.16
  Q 912.59 519.51 919.34 527.53
  Q 930.30 540.55 938.93 555.84
  A 0.61 0.61 59.0 0 1 938.73 556.66
  L 862.90 605.33
  A 0.51 0.51 59.7 0 1 862.18 605.14
  Q 855.60 593.14 846.59 583.16
  Q 833.68 568.86 814.78 564.88
  Q 797.54 561.25 781.50 566.00
  Q 773.78 568.29 767.40 573.32
  Q 760.99 578.39 757.23 585.13
  Q 751.84 594.76 752.00 607.00
  Q 752.14 617.94 756.46 626.82
  Q 760.23 634.58 769.14 641.93
  Q 778.40 649.57 789.94 655.06
  Q 814.54 666.78 839.67 677.35
  Q 860.41 686.08 882.81 698.19
  Q 903.82 709.55 921.13 723.85
  Q 949.62 747.41 960.75 780.75
  Q 967.93 802.26 968.18 826.74
  Q 968.29 837.39 967.43 846.73
  Q 965.29 869.89 955.69 890.44
  Q 949.05 904.65 938.39 917.00
  Q 932.05 924.35 924.10 930.97
  Q 901.45 949.82 872.25 958.75
  Q 844.29 967.30 816.50 968.25
  Q 783.20 969.38 754.73 963.84
  Q 717.20 956.53 685.55 935.87
  Q 677.00 930.28 669.48 923.96
  Q 642.20 901.00 625.45 868.60
  A 0.90 0.89 61.0 0 1 625.79 867.41
  L 704.63 821.71
  A 0.91 0.91 59.5 0 1 705.86 822.03
  Q 714.09 835.62 724.24 847.00
  Q 750.55 876.49 789.02 880.41
  Q 799.49 881.48 808.99 881.05
  Q 826.44 880.26 841.94 873.19
  Q 851.77 868.70 859.81 859.56
  Q 867.90 850.37 869.24 836.75
  Q 871.17 816.99 859.44 803.06
  Q 852.12 794.37 839.44 787.06
  Q 822.81 777.48 796.12 766.31
  Q 766.62 753.98 751.56 746.69
  Q 729.96 736.24 711.56 722.94
  Q 703.01 716.76 694.34 708.42
  Z"
/>
<path fill="#323330" d="
  M 311.69 927.81
  Q 289.60 907.30 276.46 878.95
  A 0.56 0.56 61.6 0 1 276.67 878.24
  L 356.02 830.09
  A 0.55 0.55 59.9 0 1 356.79 830.30
  Q 363.93 843.31 372.31 855.19
  Q 374.89 858.83 380.64 864.61
  Q 394.80 878.86 415.00 880.25
  Q 428.18 881.15 441.00 878.00
  Q 451.25 875.48 458.50 867.87
  Q 463.85 862.26 467.34 853.55
  Q 470.52 845.63 471.55 837.01
  Q 472.71 827.41 472.71 817.75
  Q 472.75 651.00 472.75 483.69
  A 0.69 0.69 0.0 0 1 473.44 483.00
  L 570.68 483.00
  A 0.82 0.82 -0.0 0 1 571.50 483.82
  Q 571.50 651.00 571.34 817.00
  Q 571.34 820.25 571.33 823.50
  Q 571.24 845.77 566.25 867.31
  Q 563.88 877.56 560.51 886.46
  Q 538.28 945.19 476.50 962.00
  Q 441.43 971.54 403.43 967.52
  Q 392.56 966.37 383.64 964.59
  Q 342.44 956.37 311.69 927.81
  Z"
/>
</svg>
