<?xml version="1.0" encoding="UTF-8" standalone="no"?>
<!DOCTYPE svg PUBLIC "-//W3C//DTD SVG 1.1//EN" "http://www.w3.org/Graphics/SVG/1.1/DTD/svg11.dtd">
<svg xmlns="http://www.w3.org/2000/svg" version="1.1" viewBox="0.00 0.00 1293.00 1054.00">
<path fill="#003545" d="
  M 807.70 568.48
  Q 806.09 568.00 804.90 569.64
  Q 799.11 577.57 795.52 586.76
  C 788.42 604.93 773.20 662.55 747.48 664.86
  C 669.68 671.84 593.20 650.83 515.69 648.58
  C 475.59 647.41 433.53 653.77 397.74 672.23
  C 362.09 690.61 328.31 714.22 295.18 734.17
  Q 283.24 741.37 268.78 748.00
  Q 242.91 759.87 217.27 772.23
  C 184.51 788.03 151.85 796.62 115.00 795.93
  C 111.26 795.86 104.22 795.25 102.31 791.55
  C 96.62 780.56 111.83 759.83 118.29 751.02
  Q 130.97 733.73 143.92 716.73
  A 1.54 1.53 37.8 0 0 143.64 714.59
  Q 141.14 712.64 138.63 711.41
  C 123.40 703.94 113.51 695.04 97.95 681.78
  Q 85.44 671.12 70.68 664.98
  Q 69.78 664.61 70.28 663.77
  C 81.26 645.29 104.01 634.87 124.92 634.20
  C 157.41 633.17 190.78 640.59 222.74 645.81
  C 241.41 648.85 262.15 651.67 280.49 648.28
  C 287.17 647.04 292.15 643.75 297.28 638.60
  Q 316.31 619.50 332.12 597.64
  C 339.07 588.02 346.19 577.50 353.27 569.00
  C 376.63 540.99 404.86 517.64 435.65 498.19
  C 465.58 479.28 499.92 470.52 532.91 458.60
  C 605.75 432.28 680.58 412.95 752.39 383.57
  C 783.61 370.80 812.99 356.14 840.44 336.69
  C 879.19 309.23 906.91 268.52 932.28 226.04
  C 980.13 145.93 1023.29 52.38 1124.90 31.76
  C 1146.41 27.40 1168.81 26.35 1191.75 25.51
  Q 1212.86 24.73 1233.26 15.53
  C 1245.35 10.08 1257.67 2.49 1271.49 0.50
  C 1281.07 -0.89 1289.56 3.80 1291.25 13.75
  C 1293.11 24.72 1292.02 35.78 1290.67 46.53
  Q 1287.54 71.62 1273.86 92.15
  C 1241.26 141.09 1166.81 157.05 1147.73 217.68
  Q 1141.35 237.96 1136.73 258.75
  C 1124.26 314.93 1113.13 369.74 1096.38 426.67
  C 1082.87 472.58 1065.18 518.24 1039.62 558.89
  C 1023.91 583.87 1004.47 606.67 980.34 623.83
  C 971.81 629.90 961.28 635.12 951.57 640.34
  A 0.45 0.44 -10.2 0 1 950.92 639.89
  Q 954.16 613.82 955.83 587.76
  Q 956.02 584.82 954.92 582.89
  A 1.03 1.02 -9.5 0 0 954.18 582.37
  Q 950.71 581.80 949.83 584.07
  C 934.64 623.22 917.72 659.57 892.31 693.28
  Q 846.16 754.53 774.33 780.68
  C 752.39 788.67 730.99 792.59 707.57 792.41
  A 0.25 0.25 0.0 0 1 707.39 791.99
  C 717.84 780.99 728.95 770.04 737.65 757.62
  C 754.50 733.56 769.79 709.27 781.74 682.35
  Q 805.61 628.61 808.31 569.33
  A 0.87 0.84 10.2 0 0 807.70 568.48
  Z"
/>
<ellipse fill="#003545" cx="0.00" cy="0.00" transform="translate(631.67,883.55) rotate(12.9)" rx="18.75" ry="18.26"/>
<path fill="#003545" d="
  M 67.66 922.08
  L 35.92 1050.35
  Q 35.76 1051.00 35.08 1051.00
  L 1.54 1051.00
  A 0.62 0.62 0.0 0 1 0.94 1050.23
  L 47.15 869.92
  Q 47.32 869.25 48.01 869.25
  L 77.21 869.25
  Q 78.27 869.25 78.71 870.22
  L 141.19 1008.80
  A 0.31 0.31 0.0 0 0 141.76 1008.80
  L 204.19 869.74
  A 0.83 0.82 -77.7 0 1 204.94 869.25
  L 234.55 869.25
  Q 235.12 869.25 235.26 869.80
  L 282.01 1050.29
  A 0.57 0.57 0.0 0 1 281.46 1051.00
  L 246.98 1051.00
  A 0.70 0.70 0.0 0 1 246.30 1050.47
  L 215.24 921.21
  A 0.36 0.36 0.0 0 0 214.53 921.24
  C 214.47 921.63 214.55 921.79 214.36 922.20
  Q 185.63 986.02 156.58 1050.62
  A 0.67 0.65 -77.0 0 1 155.99 1051.00
  L 126.80 1051.00
  A 0.79 0.79 0.0 0 1 126.08 1050.53
  L 68.18 922.03
  A 0.28 0.28 0.0 0 0 67.66 922.08
  Z"
/>
<path fill="#003545" d="
  M 974.00 869.26
  C 1039.03 869.29 1082.92 911.41 1071.80 978.81
  C 1064.53 1022.88 1030.34 1046.61 987.98 1050.47
  Q 982.66 1050.95 972.37 1050.97
  Q 930.55 1051.04 888.75 1050.99
  A 0.50 0.50 0.0 0 1 888.25 1050.49
  L 888.25 869.76
  A 0.51 0.50 -90.0 0 1 888.75 869.25
  Q 931.27 869.24 974.00 869.26
  Z
  M 1046.26 981.86
  C 1058.60 929.48 1030.07 885.68 974.49 885.54
  Q 943.16 885.45 911.74 885.52
  Q 911.25 885.52 911.25 886.01
  L 911.25 1034.24
  Q 911.25 1034.72 911.74 1034.73
  Q 943.50 1034.81 975.26 1034.72
  C 1010.53 1034.62 1038.08 1016.54 1046.26 981.86
  Z"
/>
<path fill="#003545" d="
  M 1238.37 955.46
  A 0.26 0.25 -60.1 0 0 1238.49 955.92
  Q 1260.89 957.96 1271.59 975.26
  C 1277.94 985.52 1279.88 1000.12 1277.69 1011.94
  C 1272.15 1041.93 1243.63 1050.75 1216.81 1050.86
  Q 1163.02 1051.08 1109.24 1050.98
  Q 1108.75 1050.98 1108.75 1050.49
  L 1108.75 869.76
  A 0.50 0.49 -90.0 0 1 1109.24 869.26
  Q 1158.52 869.21 1208.00 869.29
  C 1244.15 869.34 1278.85 881.08 1271.53 926.05
  C 1268.69 943.51 1255.71 952.20 1239.28 955.11
  Q 1238.72 955.21 1238.37 955.46
  Z
  M 1247.87 906.24
  C 1243.85 887.95 1224.14 884.81 1208.50 884.78
  Q 1169.64 884.71 1131.00 884.76
  A 0.50 0.50 0.0 0 0 1130.50 885.26
  L 1130.50 947.98
  Q 1130.50 948.45 1130.97 948.45
  Q 1168.08 948.59 1205.18 948.54
  Q 1217.09 948.52 1228.46 945.52
  C 1247.20 940.58 1251.63 923.32 1247.87 906.24
  Z
  M 1253.62 989.49
  C 1248.37 967.50 1225.12 964.06 1206.43 964.03
  Q 1168.62 963.96 1131.00 964.01
  A 0.50 0.50 0.0 0 0 1130.50 964.51
  L 1130.50 1034.73
  Q 1130.50 1035.23 1130.99 1035.23
  Q 1169.74 1035.31 1208.47 1035.22
  C 1228.11 1035.17 1249.62 1030.55 1254.07 1007.78
  Q 1255.84 998.75 1253.62 989.49
  Z"
/>
<path fill="#003545" d="
  M 414.82 937.98
  A 0.38 0.37 -62.8 0 0 415.50 937.76
  L 415.50 918.88
  Q 415.50 918.25 416.13 918.25
  L 449.50 918.25
  Q 450.00 918.25 450.00 918.75
  L 450.00 1050.50
  A 0.50 0.50 0.0 0 1 449.50 1051.00
  L 415.99 1051.00
  A 0.51 0.51 0.0 0 1 415.48 1050.49
  L 415.54 1030.81
  A 0.19 0.19 0.0 0 0 415.20 1030.70
  C 398.89 1054.24 366.78 1057.83 340.78 1050.13
  Q 315.73 1042.72 302.59 1021.68
  C 280.93 986.99 291.12 934.89 332.51 920.09
  C 358.03 910.97 397.63 913.51 414.82 937.98
  Z
  M 343.19 1018.56
  C 364.33 1036.21 400.22 1031.20 412.60 1005.61
  C 426.40 977.11 410.46 944.31 378.42 940.17
  C 359.36 937.70 340.94 945.29 332.72 963.60
  C 324.71 981.44 327.56 1005.52 343.19 1018.56
  Z"
/>
<path fill="#003545" d="
  M 527.25 945.99
  A 0.27 0.27 0.0 0 0 527.76 946.11
  C 540.81 919.41 567.98 909.24 595.83 918.54
  Q 596.32 918.70 596.18 919.20
  L 589.13 943.59
  A 0.71 0.70 15.5 0 1 588.27 944.07
  C 577.78 941.18 566.69 940.48 556.45 943.96
  C 538.87 949.95 527.29 966.53 527.27 985.71
  Q 527.23 1018.12 527.26 1050.48
  A 0.52 0.52 0.0 0 1 526.74 1051.00
  L 493.38 1051.00
  Q 492.75 1051.00 492.75 1050.38
  L 492.75 918.75
  A 0.50 0.50 0.0 0 1 493.25 918.25
  L 526.75 918.25
  Q 527.25 918.25 527.25 918.75
  L 527.25 945.99
  Z"
/>
<path fill="#003545" d="
  M 801.55 1031.00
  A 0.29 0.29 0.0 0 0 801.02 1030.84
  C 787.06 1052.52 757.05 1056.63 734.01 1052.04
  Q 703.99 1046.07 688.66 1021.64
  C 673.80 997.96 673.60 963.94 690.27 941.05
  C 707.73 917.09 739.18 911.43 766.83 917.39
  C 780.59 920.35 792.85 926.60 801.02 938.11
  A 0.29 0.29 0.0 0 0 801.55 937.94
  L 801.47 918.89
  Q 801.47 918.25 802.11 918.25
  L 835.25 918.25
  Q 836.00 918.25 836.00 919.00
  L 836.00 1050.50
  A 0.50 0.50 0.0 0 1 835.50 1051.00
  L 802.24 1051.00
  Q 801.48 1051.00 801.48 1050.24
  L 801.55 1031.00
  Z
  M 718.56 1003.97
  C 726.70 1023.54 746.96 1030.86 766.82 1028.20
  C 796.79 1024.18 810.36 993.25 800.06 966.73
  C 791.21 943.94 764.91 934.98 742.75 941.99
  C 716.56 950.28 708.71 980.30 718.56 1003.97
  Z"
/>
<path fill="#003545" d="
  M 633.34 1052.48
  C 617.50 1049.01 614.43 1029.56 614.44 1016.50
  Q 614.48 967.60 614.52 918.74
  A 0.49 0.49 0.0 0 1 615.01 918.25
  L 648.48 918.25
  A 0.50 0.50 0.0 0 1 648.98 918.75
  Q 649.05 967.01 648.98 1015.17
  C 648.97 1024.46 652.41 1026.47 661.20 1024.53
  Q 661.82 1024.39 661.95 1025.01
  L 667.05 1049.02
  A 0.67 0.66 -16.2 0 1 666.63 1049.78
  Q 649.82 1056.09 633.34 1052.48
  Z"
/>
</svg>
