<?xml version="1.0" encoding="UTF-8" standalone="no"?>
<!DOCTYPE svg PUBLIC "-//W3C//DTD SVG 1.1//EN" "http://www.w3.org/Graphics/SVG/1.1/DTD/svg11.dtd">
<svg xmlns="http://www.w3.org/2000/svg" version="1.1" viewBox="0 0 991 512">
<path fill="#00618a" d="
  M 721.89 224.25
  Q 720.92 222.26 720.53 224.44
  Q 718.82 233.89 717.36 243.33
  Q 716.02 252.03 714.47 254.83
  C 711.12 260.89 703.60 263.60 696.98 261.10
  C 691.11 258.89 686.47 253.51 683.13 248.39
  C 667.74 224.72 666.12 192.54 673.18 165.96
  Q 674.93 159.38 675.35 157.63
  C 676.35 153.54 676.90 148.65 679.03 145.00
  Q 680.67 142.18 678.29 139.96
  C 669.67 131.93 663.71 119.28 659.45 108.31
  Q 652.52 90.43 647.92 74.32
  Q 647.40 72.48 644.63 68.02
  C 639.48 59.74 632.93 51.88 627.01 44.13
  C 620.12 35.11 614.24 24.29 619.56 12.82
  C 631.42 -12.75 674.93 10.74 687.85 22.99
  Q 690.33 25.34 693.75 25.52
  C 700.84 25.90 708.33 26.07 715.30 27.65
  C 725.11 29.86 734.98 32.34 743.73 37.49
  C 784.02 61.17 816.57 90.96 839.87 131.72
  Q 843.23 137.61 846.69 146.28
  C 855.42 168.21 864.18 185.89 875.76 209.23
  C 878.51 214.78 880.36 221.17 886.74 223.67
  C 900.11 228.93 913.12 234.60 925.08 242.74
  Q 941.48 253.90 956.61 266.75
  C 962.46 271.72 966.75 277.50 971.35 283.54
  Q 972.81 285.45 970.54 286.22
  Q 958.83 290.18 946.62 291.49
  Q 939.69 292.23 935.50 293.25
  C 930.50 294.46 925.30 296.28 920.20 296.83
  Q 916.61 297.21 919.99 301.04
  C 929.13 311.39 942.19 316.22 952.79 324.78
  C 962.68 332.77 969.75 342.17 978.63 351.05
  C 981.37 353.79 982.35 356.94 983.92 360.35
  Q 984.14 360.83 983.67 360.60
  Q 981.36 359.48 977.65 356.11
  Q 969.16 348.39 956.78 341.18
  C 950.24 337.37 940.95 333.74 935.04 330.49
  C 919.38 321.87 903.68 310.50 897.20 293.35
  Q 895.96 290.09 899.28 289.01
  C 905.65 286.93 912.43 284.18 918.45 282.80
  Q 935.63 278.84 953.73 279.93
  A 1.11 1.11 80.5 0 0 954.82 278.40
  C 953.28 274.70 946.77 270.96 943.50 268.81
  C 934.31 262.78 925.43 256.37 916.22 250.39
  Q 911.79 247.51 906.74 245.54
  C 895.47 241.16 885.29 238.39 876.06 234.71
  C 869.24 231.99 863.68 220.78 860.55 214.04
  Q 848.93 189.03 837.26 164.05
  C 834.61 158.39 832.40 150.74 830.17 146.32
  C 809.01 104.40 774.32 68.18 731.76 47.75
  Q 723.48 43.77 713.00 40.75
  C 707.78 39.24 699.20 39.86 692.71 38.84
  C 689.76 38.37 684.83 39.14 682.30 36.95
  Q 668.16 24.74 648.27 17.28
  C 643.28 15.41 638.03 13.00 633.21 15.07
  C 622.86 19.51 634.09 34.81 638.32 40.10
  C 648.35 52.66 656.32 63.29 661.22 78.13
  C 667.47 97.00 672.09 117.70 686.81 132.15
  Q 693.39 138.60 690.00 148.74
  C 687.65 155.82 684.68 163.01 683.28 168.85
  C 678.29 189.61 678.99 213.94 687.69 233.75
  C 690.30 239.69 693.44 247.09 700.49 248.32
  A 0.91 0.91 7.6 0 0 701.55 247.51
  C 702.78 234.28 703.86 219.76 709.60 208.00
  C 711.82 203.45 716.08 198.89 719.27 194.69
  Q 720.99 192.42 721.97 195.10
  C 723.04 198.04 723.77 201.18 724.89 203.89
  Q 739.78 239.74 762.55 271.20
  Q 770.71 282.47 781.52 291.23
  Q 782.53 292.04 781.41 291.90
  Q 779.47 291.64 777.28 289.73
  C 771.97 285.08 767.25 280.03 761.75 275.64
  C 752.61 268.34 743.94 260.21 736.73 250.99
  C 730.67 243.24 726.32 233.30 721.89 224.25
  Z"
/>
<path fill="#00618a" d="
  M 691.06 64.51
  A 0.32 0.32 64.8 0 1 691.24 64.01
  C 694.82 63.05 699.34 62.08 702.67 64.25
  C 710.95 69.64 713.70 79.47 705.33 86.42
  A 0.43 0.43 56.0 0 1 704.67 86.29
  C 702.37 81.84 700.72 76.77 697.50 72.96
  Q 694.20 69.05 691.06 64.51
  Z"
/>
<path fill="#00618a" d="
  M 34.31 338.31
  L 34.44 465.23
  A 0.53 0.52 -1.1 0 1 33.93 465.75
  Q 18.15 466.39 2.27 465.75
  A 0.52 0.51 1.2 0 1 1.77 465.24
  Q 1.72 402.72 1.77 340.30
  C 1.77 329.68 3.64 321.07 14.43 316.95
  C 30.64 310.75 51.80 309.63 62.89 325.83
  Q 64.58 328.31 70.67 342.34
  Q 92.23 392.00 113.52 441.31
  Q 113.89 442.17 114.28 441.31
  Q 136.97 390.57 159.65 339.83
  Q 165.32 327.13 168.86 323.06
  C 180.21 310.02 198.68 311.12 213.98 316.66
  Q 227.59 321.58 227.58 336.51
  Q 227.57 400.91 227.45 465.34
  A 0.51 0.50 -90.0 0 1 226.95 465.85
  L 195.55 465.85
  A 0.51 0.50 90.0 0 1 195.05 465.34
  L 195.02 339.47
  Q 195.02 337.22 194.09 339.27
  Q 169.74 393.55 145.31 447.78
  C 140.97 457.39 136.34 464.50 125.25 466.71
  C 109.07 469.94 92.93 467.39 85.45 450.80
  Q 60.07 394.54 34.81 338.22
  Q 34.31 337.10 34.31 338.31
  Z"
/>
<path fill="#e48e00" d="
  M 486.82 400.16
  C 470.73 399.80 443.16 394.49 436.41 376.70
  Q 435.00 372.97 434.97 364.63
  C 434.93 347.65 433.45 333.83 449.31 324.29
  C 462.77 316.19 475.64 315.83 493.26 315.79
  Q 536.60 315.69 579.94 315.78
  A 0.51 0.50 0.0 0 1 580.45 316.28
  L 580.36 336.97
  A 0.51 0.50 0.6 0 1 579.85 337.46
  Q 532.30 337.52 484.82 337.51
  C 476.85 337.51 467.88 339.93 467.60 349.52
  C 467.06 368.16 465.85 380.04 488.25 380.31
  Q 506.32 380.53 524.39 380.55
  Q 536.92 380.56 542.91 381.63
  C 555.53 383.87 576.44 391.62 578.93 406.09
  C 580.14 413.10 579.22 422.13 579.27 429.37
  Q 579.32 436.27 578.08 440.07
  C 572.59 456.87 551.49 463.97 535.73 465.58
  Q 532.49 465.92 515.73 465.96
  Q 475.42 466.06 435.10 465.97
  A 0.39 0.38 0.7 0 1 434.71 465.58
  L 434.80 444.76
  A 0.51 0.50 -0.0 0 1 435.31 444.26
  Q 480.39 444.26 525.43 444.23
  C 533.12 444.23 545.75 440.92 546.27 431.28
  Q 546.75 422.35 546.39 413.46
  C 545.96 402.71 532.73 400.41 524.50 400.40
  Q 496.14 400.37 486.82 400.16
  Z"
/>
<path fill="#e48e00" d="
  M 842.83 465.95
  C 822.42 465.87 788.45 461.84 783.02 436.34
  Q 782.32 433.01 782.28 418.07
  Q 782.18 367.29 782.31 316.41
  A 0.52 0.50 -90.0 0 1 782.81 315.89
  L 814.26 315.94
  A 0.52 0.49 90.0 0 1 814.75 316.46
  Q 814.73 371.90 814.78 427.24
  C 814.79 442.34 827.71 444.19 839.75 444.21
  Q 882.84 444.28 925.93 444.25
  A 0.52 0.49 0.0 0 1 926.45 444.74
  L 926.36 465.44
  A 0.52 0.49 -0.0 0 1 925.84 465.93
  Q 884.29 466.11 842.83 465.95
  Z"
/>
<path fill="#e48e00" d="
  M 743.11 459.83
  L 773.89 487.74
  Q 774.26 488.09 773.75 488.09
  L 737.28 488.23
  A 1.31 1.30 -23.9 0 1 736.41 487.90
  L 711.35 465.31
  A 1.22 1.17 63.8 0 0 710.47 464.99
  Q 702.03 465.40 693.65 465.92
  C 677.97 466.90 656.95 466.77 646.32 466.44
  Q 633.96 466.05 620.40 460.17
  Q 600.20 451.40 600.12 429.01
  Q 600.00 393.03 600.02 357.07
  Q 600.02 346.50 601.50 341.71
  C 606.31 326.10 623.56 319.13 638.56 316.90
  Q 644.35 316.04 658.51 316.01
  Q 683.31 315.96 708.14 316.03
  C 726.51 316.07 753.25 320.48 760.16 341.19
  Q 761.73 345.90 761.75 357.96
  Q 761.86 421.44 761.68 433.68
  C 761.49 446.82 753.85 453.37 743.19 459.26
  A 0.36 0.35 -37.8 0 0 743.11 459.83
  Z
  M 662.31 420.55
  Q 680.53 419.94 698.84 420.36
  A 1.38 1.34 65.8 0 1 699.72 420.71
  L 722.40 441.20
  A 0.71 0.69 51.9 0 0 723.20 441.31
  C 730.48 437.41 731.47 431.90 731.48 423.50
  Q 731.51 389.38 731.41 355.25
  C 731.38 343.39 721.36 337.94 710.94 337.79
  Q 701.76 337.66 658.50 337.70
  C 646.60 337.72 635.26 342.01 635.25 355.90
  Q 635.25 389.38 635.25 422.88
  Q 635.25 430.04 636.66 433.41
  C 639.66 440.62 648.03 444.65 655.82 444.70
  Q 671.87 444.81 687.05 444.73
  Q 688.53 444.72 687.43 443.73
  L 662.18 420.90
  Q 661.81 420.56 662.31 420.55
  Z"
/>
<path fill="#00618a" d="
  M 376.69 465.53
  A 0.62 0.62 89.5 0 0 376.07 464.92
  Q 342.28 464.72 309.01 464.72
  C 288.39 464.71 253.28 458.17 254.49 430.35
  C 255.49 407.65 254.74 384.54 254.76 361.79
  A 0.50 0.50 0.0 0 1 255.26 361.29
  L 286.16 361.26
  A 0.85 0.85 -89.9 0 1 287.01 362.11
  Q 286.97 395.84 287.26 428.68
  C 287.29 432.01 286.76 435.32 288.50 438.20
  C 291.78 443.64 299.79 445.27 305.75 445.27
  Q 341.22 445.27 376.69 445.24
  A 0.31 0.31 0.0 0 0 377.00 444.93
  L 377.02 361.54
  A 0.50 0.50 0.0 0 1 377.52 361.04
  L 409.12 361.01
  A 0.38 0.37 90.0 0 1 409.49 361.39
  Q 409.52 417.64 409.49 473.34
  Q 409.48 480.47 408.56 483.95
  C 402.72 506.03 372.77 511.54 354.00 511.54
  Q 304.91 511.52 255.80 511.49
  A 0.50 0.49 0.0 0 1 255.30 511.00
  L 255.40 490.04
  A 0.52 0.51 0.0 0 1 255.92 489.53
  Q 307.58 489.48 359.18 489.50
  Q 360.63 489.50 364.01 488.53
  C 378.41 484.42 376.89 478.71 376.69 465.53
  Z"
/>
<path fill="#e48e00" d="
  M 989.85 443.61
  A 24.01 24.01 0.0 0 1 965.84 467.62
  A 24.01 24.01 0.0 0 1 941.83 443.61
  A 24.01 24.01 0.0 0 1 965.84 419.60
  A 24.01 24.01 0.0 0 1 989.85 443.61
  Z
  M 966.1286 462.6177
  A 19.01 18.64 89.1 0 0 984.4677 443.3172
  A 19.01 18.64 89.1 0 0 965.5314 424.6023
  A 19.01 18.64 89.1 0 0 947.1923 443.9028
  A 19.01 18.64 89.1 0 0 966.1286 462.6177
  Z"
/>
<path fill="#e48e00" d="
  M 961.01 446.05
  L 960.79 456.54
  A 0.65 0.57 85.7 0 1 960.33 457.15
  Q 958.52 457.51 956.75 457.09
  A 0.64 0.62 -83.8 0 1 956.27 456.47
  L 956.27 430.56
  A 0.52 0.52 0.0 0 1 956.78 430.05
  C 964.15 429.86 974.73 428.32 976.82 435.12
  C 978.27 439.83 975.87 444.45 970.70 445.08
  A 0.58 0.57 -20.3 0 0 970.29 445.96
  L 977.23 456.53
  Q 977.69 457.22 976.88 457.22
  L 972.78 457.23
  A 0.93 0.87 73.3 0 1 972.02 456.79
  L 965.47 445.98
  A 0.94 0.79 71.6 0 0 964.72 445.52
  L 961.57 445.53
  A 0.56 0.53 0.5 0 0 961.01 446.05
  Z
  M 970.16 434.55
  Q 966.13 433.14 961.36 433.86
  A 0.61 0.57 -4.7 0 0 960.84 434.43
  L 960.80 440.99
  A 0.83 0.79 -0.7 0 0 961.66 441.79
  C 965.19 441.69 971.47 442.54 972.21 438.00
  Q 972.64 435.41 970.16 434.55
  Z"
/>
</svg>
