<?xml version="1.0" encoding="UTF-8" standalone="no"?>
<!DOCTYPE svg PUBLIC "-//W3C//DTD SVG 1.1//EN" "http://www.w3.org/Graphics/SVG/1.1/DTD/svg11.dtd">
<svg xmlns="http://www.w3.org/2000/svg" version="1.1" viewBox="0 0 637 636">
<path fill="#3571a3" d="
  M 319.99 164.83
  Q 320.58 155.57 320.10 145.38
  A 0.54 0.51 -0.5 0 0 319.57 144.89
  Q 243.52 143.78 167.38 144.02
  A 1.13 1.12 0.0 0 1 166.25 142.90
  Q 166.24 106.42 166.26 69.61
  C 166.29 28.02 220.93 11.39 253.26 6.25
  C 284.58 1.27 315.94 0.55 347.56 2.49
  C 384.16 4.73 428.73 12.80 455.65 40.23
  C 464.50 49.25 473.49 64.52 473.49 77.36
  C 473.52 129.91 473.85 182.47 473.02 235.00
  Q 472.92 240.91 472.03 245.26
  C 465.60 276.80 444.38 297.28 413.45 305.42
  C 398.73 309.30 381.03 308.92 365.44 308.92
  C 320.23 308.92 274.90 308.61 229.71 309.78
  Q 216.68 310.12 209.96 311.53
  C 174.09 319.10 151.80 348.49 147.06 383.77
  Q 146.49 388.04 146.31 408.57
  Q 146.01 441.50 145.69 473.41
  A 1.53 1.53 -0.3 0 1 144.17 474.93
  Q 113.87 475.18 85.75 474.77
  Q 82.75 474.73 76.87 473.20
  C 5.00 454.51 -1.60 350.95 2.33 293.50
  C 4.74 258.33 12.76 223.85 34.92 196.93
  C 49.18 179.61 71.51 167.67 94.89 166.44
  Q 98.55 166.24 103.60 166.22
  Q 210.09 165.82 318.69 166.06
  A 1.32 1.30 -88.1 0 0 319.99 164.83
  Z
  M 259.91 78.08
  A 27.42 27.42 0.0 0 0 232.49 50.66
  A 27.42 27.42 0.0 0 0 205.07 78.08
  A 27.42 27.42 0.0 0 0 232.49 105.50
  A 27.42 27.42 0.0 0 0 259.91 78.08
  Z"
/>
<path fill="#fed142" d="
  M 320.07 491.95
  C 370.88 492.60 421.70 492.18 472.51 492.69
  A 0.59 0.58 -2.8 0 1 473.08 493.20
  Q 473.39 496.02 473.42 498.75
  Q 473.72 532.13 473.81 565.50
  C 473.86 586.20 459.68 602.42 442.55 612.30
  C 423.46 623.32 400.02 628.92 378.23 631.67
  C 320.66 638.94 190.27 642.63 167.58 567.97
  Q 166.48 564.37 166.49 559.88
  C 166.63 499.90 166.01 466.73 166.67 412.69
  C 166.96 389.33 171.14 370.03 187.60 353.22
  C 200.66 339.89 217.27 333.91 235.09 329.56
  Q 239.38 328.51 244.04 328.49
  Q 327.12 328.18 410.19 327.44
  C 453.97 327.05 485.30 299.18 492.39 256.18
  Q 493.48 249.61 493.69 236.24
  C 494.08 211.85 494.86 187.14 494.56 162.77
  A 0.49 0.49 89.4 0 1 495.05 162.27
  Q 524.21 162.20 553.34 162.29
  Q 558.36 162.30 562.38 163.43
  C 607.79 176.11 627.31 221.33 634.25 264.10
  Q 635.59 272.35 635.75 284.00
  Q 636.14 311.30 635.88 349.57
  Q 635.77 364.82 632.74 378.81
  C 623.82 419.94 601.95 456.97 558.79 468.49
  C 553.88 469.80 547.28 469.93 542.03 470.01
  C 468.13 471.12 394.20 470.43 320.29 471.05
  A 0.51 0.51 -0.6 0 0 319.79 471.56
  L 319.58 491.44
  A 0.50 0.50 0.0 0 0 320.07 491.95
  Z
  M 434.83 558.61
  A 27.53 27.53 0.0 0 0 407.30 531.08
  A 27.53 27.53 0.0 0 0 379.77 558.61
  A 27.53 27.53 0.0 0 0 407.30 586.14
  A 27.53 27.53 0.0 0 0 434.83 558.61
  Z"
/>
</svg>
