<?xml version="1.0" encoding="UTF-8" standalone="no"?>
<!DOCTYPE svg PUBLIC "-//W3C//DTD SVG 1.1//EN" "http://www.w3.org/Graphics/SVG/1.1/DTD/svg11.dtd">
<svg xmlns="http://www.w3.org/2000/svg" version="1.1" viewBox="0 0 856 768">
<path fill="#68bd45" d="
  M 256.31 0.00
  L 599.31 0.00
  Q 617.20 1.59 631.94 8.56
  Q 648.07 16.20 659.69 26.56
  Q 670.14 35.89 675.44 45.06
  Q 757.34 186.91 839.41 328.66
  Q 846.17 340.33 847.69 344.06
  Q 859.88 374.09 853.47 406.04
  Q 850.84 419.17 844.75 429.75
  Q 812.63 485.60 685.24 706.42
  Q 675.76 722.85 673.19 726.44
  Q 668.21 733.38 661.95 739.20
  Q 644.69 755.26 622.44 763.19
  Q 611.54 767.07 598.69 768.00
  L 256.19 768.00
  Q 229.56 765.36 207.96 750.78
  Q 198.94 744.69 192.38 738.28
  Q 184.20 730.30 178.25 720.00
  Q 98.64 582.18 19.06 444.35
  Q 10.53 429.57 9.25 426.93
  Q 1.05 409.97 0.00 390.69
  L 0.00 376.94
  Q 1.33 354.04 12.77 334.29
  Q 92.34 196.79 171.81 59.22
  Q 180.43 44.29 182.02 42.03
  Q 188.70 32.48 198.44 24.44
  Q 224.09 3.24 256.31 0.00
  Z
  M 403.19 396.06
  Q 412.86 404.51 424.83 404.81
  Q 434.77 405.06 443.85 399.65
  Q 460.75 389.58 460.75 366.75
  Q 460.75 269.50 460.94 172.25
  Q 460.96 159.07 460.50 156.50
  Q 456.68 135.33 438.89 128.34
  Q 429.04 124.47 419.29 126.34
  Q 408.75 128.37 401.00 136.50
  Q 393.85 144.00 392.04 153.83
  Q 391.50 156.76 391.50 172.71
  Q 391.50 268.79 391.50 364.86
  Q 391.50 375.65 392.97 380.48
  Q 395.74 389.55 403.19 396.06
  Z
  M 264.69 539.81
  Q 299.09 572.31 343.03 588.92
  Q 390.12 606.71 440.50 603.75
  Q 492.40 600.70 539.02 575.16
  Q 547.73 570.39 556.09 564.77
  Q 618.50 522.82 645.75 452.58
  Q 649.39 443.19 652.10 433.61
  Q 670.58 368.37 651.77 303.24
  Q 649.01 293.66 645.40 284.29
  Q 620.25 218.83 564.19 178.56
  Q 557.66 173.88 549.35 173.50
  Q 541.78 173.17 534.55 176.48
  Q 523.22 181.68 518.77 193.33
  Q 515.91 200.82 516.93 208.44
  Q 518.01 216.53 522.98 223.00
  Q 525.20 225.90 532.41 231.54
  Q 565.88 257.76 583.44 295.56
  Q 598.81 328.67 599.69 365.25
  Q 600.55 400.55 587.49 433.25
  Q 569.81 477.52 532.19 506.69
  Q 493.31 536.83 443.96 541.97
  Q 434.03 543.01 424.01 542.89
  Q 381.54 542.37 345.19 523.06
  Q 306.01 502.25 282.00 466.50
  Q 248.14 416.08 252.75 355.20
  Q 253.50 345.22 255.50 335.40
  Q 268.69 270.57 321.82 229.83
  Q 334.89 219.81 334.63 204.56
  Q 334.49 196.53 330.91 189.95
  Q 327.09 182.94 320.06 178.69
  Q 307.35 171.00 293.63 175.94
  Q 290.51 177.06 287.26 179.21
  Q 284.44 181.07 281.44 183.44
  Q 245.44 211.79 222.56 251.06
  Q 197.26 294.49 192.07 345.53
  Q 191.06 355.47 190.95 365.50
  Q 190.23 433.30 225.54 491.50
  Q 241.67 518.07 264.69 539.81
  Z"
/>
</svg>
