<?xml version="1.0" encoding="UTF-8" standalone="no"?>
<!DOCTYPE svg PUBLIC "-//W3C//DTD SVG 1.1//EN" "http://www.w3.org/Graphics/SVG/1.1/DTD/svg11.dtd">
<svg xmlns="http://www.w3.org/2000/svg" version="1.1" viewBox="0 0 256 256">
<path fill="#017acc" d="
  M 254.00 252.15
  A 0.60 0.60 0.0 0 1 253.40 252.75
  L 4.60 252.75
  A 0.60 0.60 0.0 0 1 4.00 252.15
  L 4.00 3.35
  A 0.60 0.60 0.0 0 1 4.60 2.75
  L 253.40 2.75
  A 0.60 0.60 0.0 0 1 254.00 3.35
  L 254.00 252.15
  Z
  M 191.31 211.69
  Q 179.24 209.37 172.79 198.57
  A 0.98 0.97 -30.4 0 0 171.46 198.23
  L 154.08 208.27
  A 0.99 0.99 -30.8 0 0 153.73 209.65
  Q 165.15 227.96 184.95 231.28
  Q 192.93 232.62 200.58 232.07
  Q 208.62 231.49 215.94 228.19
  Q 233.49 220.27 234.16 200.57
  Q 234.53 189.68 228.91 181.23
  Q 225.78 176.52 219.97 172.37
  Q 214.80 168.68 208.93 166.08
  Q 199.81 162.03 190.95 157.45
  Q 187.17 155.49 185.71 153.70
  Q 183.48 150.96 183.33 147.36
  Q 183.20 144.06 184.78 141.51
  Q 186.55 138.63 189.94 137.69
  Q 201.39 134.51 207.75 144.50
  Q 209.37 147.04 211.15 145.69
  Q 212.55 144.62 212.60 144.60
  Q 219.90 140.26 226.61 135.05
  A 0.56 0.55 55.7 0 0 226.74 134.32
  Q 217.44 118.71 200.38 117.07
  Q 192.13 116.27 185.15 117.66
  Q 177.39 119.19 171.06 124.31
  Q 163.91 130.10 161.60 138.40
  Q 159.48 146.04 160.97 154.65
  Q 163.12 167.02 174.17 174.84
  Q 179.44 178.56 184.31 180.69
  Q 193.83 184.84 201.59 188.87
  Q 206.83 191.60 208.86 194.44
  Q 212.63 199.74 209.21 205.28
  Q 206.79 209.20 201.87 210.88
  Q 196.56 212.70 191.31 211.69
  Z
  M 91.19 139.06
  L 91.25 230.50
  A 0.50 0.50 0.0 0 0 91.75 231.00
  L 113.75 231.00
  A 0.50 0.50 0.0 0 0 114.25 230.50
  L 114.25 139.31
  A 0.81 0.81 0.0 0 1 115.06 138.50
  L 145.90 138.50
  A 0.85 0.85 0.0 0 0 146.75 137.65
  L 146.75 118.88
  A 0.88 0.88 0.0 0 0 145.87 118.00
  L 59.51 118.25
  A 0.52 0.51 -88.2 0 0 59.00 118.74
  Q 58.45 128.40 58.91 138.06
  A 0.53 0.53 88.3 0 0 59.44 138.56
  L 90.69 138.56
  A 0.50 0.50 0.0 0 1 91.19 139.06
  Z"
/>
</svg>
